<svg width="56" height="56" viewBox="0 0 56 56" fill="none" xmlns="http://www.w3.org/2000/svg">
<path d="M12.8992 52.9001C10.8992 52.9001 9.29922 51.3001 9.29922 49.3001V23.8001H4.49922C3.99922 23.8001 3.69922 23.4001 3.69922 23.0001V6.7001C3.69922 4.7001 5.29922 3.1001 7.29922 3.1001H43.0992C45.0992 3.1001 46.6992 4.7001 46.6992 6.7001V32.2001H51.4992C51.9992 32.2001 52.2992 32.6001 52.2992 33.0001V49.2001C52.2992 51.2001 50.6992 52.8001 48.6992 52.8001H12.8992V52.9001ZM46.6992 49.3001C46.6992 50.4001 47.5992 51.3001 48.6992 51.3001C49.7992 51.3001 50.6992 50.4001 50.6992 49.3001V33.9001H46.6992V49.3001ZM10.4992 5.2001C10.6992 5.6001 10.8992 6.1001 10.8992 6.7001V49.3001C10.8992 50.4001 11.7992 51.3001 12.8992 51.3001H45.6992L45.4992 50.9001C45.2992 50.5001 45.0992 50.0001 45.0992 49.4001V6.7001C45.0992 5.6001 44.1992 4.7001 43.0992 4.7001H10.2992L10.4992 5.2001ZM7.29922 4.7001C6.19922 4.7001 5.29922 5.6001 5.29922 6.7001V22.1001H9.29922V6.7001C9.29922 5.6001 8.39922 4.7001 7.29922 4.7001ZM36.3992 45.6001C36.1992 45.6001 36.0992 45.5001 35.8992 45.4001L32.4992 42.5001L29.0992 45.4001C28.9992 45.5001 28.7992 45.6001 28.5992 45.6001C28.4992 45.6001 28.3992 45.6001 28.1992 45.5001C27.8992 45.4001 27.6992 45.1001 27.6992 44.8001V37.1001L27.4992 37.0001C27.0992 36.9001 26.6992 36.7001 26.3992 36.4001C25.6992 35.7001 25.4992 34.6001 25.8992 33.7001C25.9992 33.5001 25.8992 33.3001 25.8992 33.2001V33.1001V33.0001C25.7992 32.9001 25.6992 32.7001 25.3992 32.6001C24.3992 32.3001 23.7992 31.4001 23.7992 30.3001C23.7992 29.2001 24.3992 28.4001 25.3992 28.0001C25.5992 27.9001 25.6992 27.8001 25.7992 27.7001C25.9992 27.5001 25.9992 27.2001 25.7992 26.9001C25.3992 26.0001 25.4992 24.9001 26.2992 24.2001C26.6992 23.7001 27.2992 23.5001 27.9992 23.5001C28.3992 23.5001 28.6992 23.6001 28.9992 23.7001C29.0992 23.7001 29.1992 23.8001 29.2992 23.8001C29.3992 23.8001 29.4992 23.8001 29.4992 23.8001H29.5992H29.6992C29.7992 23.7001 29.9992 23.6001 30.0992 23.3001C30.3992 22.3001 31.2992 21.7001 32.3992 21.7001C33.4992 21.7001 34.2992 22.3001 34.6992 23.3001C34.7992 23.5001 34.9992 23.7001 35.0992 23.8001C35.1992 23.8001 35.2992 23.9001 35.3992 23.9001C35.4992 23.9001 35.5992 23.9001 35.6992 23.8001C36.0992 23.6001 36.3992 23.5001 36.7992 23.5001C37.3992 23.5001 37.9992 23.7001 38.4992 24.2001C39.1992 24.9001 39.3992 26.0001 38.9992 26.9001C38.8992 27.1001 38.9992 27.3001 38.9992 27.4001C38.9992 27.7001 39.1992 27.9001 39.4992 28.0001C40.4992 28.3001 41.0992 29.2001 41.1992 30.3001C41.1992 31.4001 40.5992 32.2001 39.5992 32.6001C39.3992 32.7001 39.2992 32.8001 39.1992 32.9001C38.9992 33.1001 38.9992 33.3001 39.0992 33.6001V33.7001C39.4992 34.6001 39.2992 35.7001 38.5992 36.4001C38.2992 36.7001 37.8992 36.9001 37.3992 37.0001H37.1992V44.8001C37.1992 45.1001 36.9992 45.4001 36.6992 45.5001C36.5992 45.6001 36.4992 45.6001 36.3992 45.6001ZM32.4992 40.6001C32.6992 40.6001 32.8992 40.7001 33.0992 40.8001L35.5992 43.0001V36.4001L35.0992 36.9001C34.9992 37.0001 34.9992 37.0001 34.8992 37.2001C34.4992 38.2001 33.5992 38.9001 32.5992 38.9001C31.4992 38.9001 30.6992 38.3001 30.2992 37.3001C30.1992 37.1001 30.0992 37.0001 29.9992 36.9001L29.4992 36.4001V37.1001V43.0001L32.0992 40.9001C32.0992 40.7001 32.2992 40.6001 32.4992 40.6001ZM29.4992 35.2001C29.7992 35.2001 30.0992 35.3001 30.3992 35.4001C30.9992 35.6001 31.4992 36.1001 31.7992 36.8001C31.9992 37.2001 32.2992 37.3001 32.4992 37.3001C32.6992 37.3001 33.0992 37.2001 33.1992 36.8001C33.4992 36.1001 33.8992 35.6001 34.4992 35.3001C34.7992 35.2001 35.1992 35.1001 35.4992 35.1001C35.8992 35.1001 36.1992 35.2001 36.4992 35.3001C36.5992 35.4001 36.6992 35.4001 36.8992 35.4001C37.0992 35.4001 37.2992 35.3001 37.4992 35.2001C37.7992 34.9001 37.7992 34.6001 37.6992 34.4001V34.3001C37.3992 33.7001 37.3992 33.0001 37.6992 32.4001C37.9992 31.8001 38.3992 31.3001 39.0992 31.0001C39.4992 30.8001 39.5992 30.5001 39.5992 30.3001C39.5992 30.1001 39.4992 29.7001 39.0992 29.6001C38.3992 29.3001 37.8992 28.8001 37.5992 28.3001C37.2992 27.6001 37.3992 26.9001 37.5992 26.3001C37.6992 26.0001 37.6992 25.7001 37.3992 25.4001C37.1992 25.0001 36.9992 25.0001 36.7992 25.0001C36.6992 25.0001 36.5992 25.0001 36.4992 25.1001C36.1992 25.3001 35.7992 25.3001 35.3992 25.3001C35.0992 25.3001 34.7992 25.2001 34.3992 25.1001C33.7992 24.8001 33.2992 24.4001 32.9992 23.7001C32.7992 23.3001 32.4992 23.2001 32.2992 23.2001C31.9992 23.2001 31.6992 23.3001 31.5992 23.7001C31.2992 24.4001 30.8992 24.9001 30.2992 25.2001C29.9992 25.3001 29.5992 25.4001 29.2992 25.4001C28.8992 25.4001 28.5992 25.3001 28.2992 25.2001C28.1992 25.1001 28.0992 25.1001 27.8992 25.1001C27.6992 25.1001 27.4992 25.2001 27.2992 25.3001C26.9992 25.6001 26.9992 26.0001 27.0992 26.2001C27.3992 26.8001 27.3992 27.5001 27.1992 28.2001C26.8992 28.8001 26.4992 29.3001 25.7992 29.6001C25.3992 29.8001 25.2992 30.1001 25.2992 30.3001C25.2992 30.6001 25.3992 30.9001 25.7992 31.0001C26.4992 31.3001 26.9992 31.8001 27.2992 32.3001C27.5992 33.0001 27.4992 33.7001 27.2992 34.3001C27.1992 34.6001 27.1992 34.9001 27.4992 35.2001C27.5992 35.3001 27.6992 35.4001 28.0992 35.4001C28.1992 35.4001 28.2992 35.4001 28.3992 35.4001H28.4992C28.7992 35.3001 29.0992 35.2001 29.4992 35.2001ZM17.8992 42.3001C17.6992 42.3001 17.4992 42.2001 17.2992 42.1001L15.0992 39.9001C14.8992 39.7001 14.8992 39.5001 14.8992 39.3001C14.8992 39.1001 14.9992 38.9001 15.0992 38.7001C15.2992 38.5001 15.4992 38.5001 15.6992 38.5001C15.8992 38.5001 16.0992 38.6001 16.2992 38.7001L17.9992 40.4001L21.8992 36.5001C22.0992 36.3001 22.2992 36.3001 22.4992 36.3001C22.6992 36.3001 22.8992 36.4001 23.0992 36.5001C23.3992 36.8001 23.3992 37.3001 23.0992 37.6001L18.4992 42.0001C18.2992 42.2001 18.0992 42.3001 17.8992 42.3001ZM15.6992 28.8001C15.1992 28.8001 14.8992 28.4001 14.8992 28.0001C14.8992 27.6001 15.2992 27.2001 15.6992 27.2001H17.8992C18.3992 27.2001 18.6992 27.6001 18.6992 28.0001C18.6992 28.4001 18.2992 28.8001 17.8992 28.8001H15.6992ZM15.6992 23.2001C15.1992 23.2001 14.8992 22.8001 14.8992 22.4001C14.8992 22.0001 15.2992 21.6001 15.6992 21.6001H22.3992C22.8992 21.6001 23.1992 22.0001 23.1992 22.4001C23.1992 22.8001 22.7992 23.2001 22.3992 23.2001H15.6992ZM15.6992 17.6001C15.1992 17.6001 14.8992 17.2001 14.8992 16.8001C14.8992 16.4001 15.2992 16.0001 15.6992 16.0001H40.2992C40.7992 16.0001 41.0992 16.4001 41.0992 16.8001C41.0992 17.2001 40.6992 17.6001 40.2992 17.6001H15.6992ZM15.6992 12.0001C15.1992 12.0001 14.8992 11.6001 14.8992 11.2001C14.8992 10.8001 15.2992 10.4001 15.6992 10.4001H24.6992C25.1992 10.4001 25.4992 10.8001 25.4992 11.2001C25.4992 11.6001 25.0992 12.0001 24.5992 12.0001H15.6992Z" fill="#0E0E9C"/>
</svg>
