<svg width="28" height="40" viewBox="0 0 28 40" fill="none" xmlns="http://www.w3.org/2000/svg">
<path d="M27.9995 17.1431V11.4289C28.0045 11.2412 27.9695 11.0546 27.897 10.8819C27.8245 10.7093 27.7162 10.5548 27.5795 10.4289L17.7797 0.429052C17.6565 0.289546 17.505 0.178984 17.3358 0.104995C17.1666 0.031005 16.9837 -0.00465113 16.7997 0.000485766H2.79995C2.05804 0.00274678 1.34715 0.304489 0.822535 0.839811C0.297922 1.37513 0.00221578 2.10054 0 2.85759V37.1429C0 37.9006 0.294994 38.6274 0.820087 39.1632C1.34518 39.699 2.05736 40 2.79995 40H28L27.9995 17.1431H25.1996V37.1429H2.79995V2.85759H13.9998V11.4289C14.002 12.186 14.2977 12.9114 14.8223 13.4467C15.3469 13.982 16.0578 14.2838 16.7997 14.286H25.1996V17.1431H27.9995ZM16.7997 11.4289V3.42902L24.6396 11.4289H16.7997Z" fill="#DBDBDB"/>
</svg>
