<svg width="56" height="56" viewBox="0 0 56 56" fill="none" xmlns="http://www.w3.org/2000/svg">
<path d="M6.14811 37.2136C6.12617 37.2136 6.10271 37.2136 6.08001 37.2136C5.88011 37.1957 5.69549 37.0992 5.56677 36.9452C5.43805 36.7912 5.37577 36.5924 5.39363 36.3925L7.03882 18.0063C7.05569 17.8175 7.1428 17.6419 7.28294 17.5142C7.42307 17.3866 7.60601 17.3162 7.79557 17.3169H13.4485C13.6368 17.316 13.8186 17.3852 13.9586 17.5112C14.0985 17.6371 14.1865 17.8107 14.2053 17.998L15.6008 31.4554C15.6214 31.6551 15.5619 31.8548 15.4353 32.0107C15.3087 32.1665 15.1254 32.2657 14.9257 32.2863C14.726 32.307 14.5263 32.2475 14.3705 32.1209C14.2146 31.9943 14.1155 31.811 14.0948 31.6113L12.7705 18.8327H8.48195L6.90109 36.5242C6.88427 36.7123 6.79769 36.8874 6.65836 37.015C6.51903 37.1425 6.33702 37.2134 6.14811 37.2136Z" fill="#0E0E9C"/>
<path d="M51.9608 54.4865H4.03996C3.83926 54.4865 3.64677 54.4067 3.50485 54.2648C3.36293 54.1229 3.2832 53.9304 3.2832 53.7297V37.6494C3.28321 37.5155 3.31872 37.384 3.38613 37.2684C3.45353 37.1527 3.55041 37.057 3.66688 36.991L19.6405 27.9387C19.7556 27.8735 19.8858 27.8395 20.0182 27.8403C20.1505 27.8411 20.2803 27.8766 20.3946 27.9432C20.5089 28.0099 20.6038 28.1053 20.6697 28.22C20.7356 28.3347 20.7703 28.4647 20.7703 28.5971V36.3508L35.6141 27.9387C35.7292 27.8735 35.8595 27.8395 35.9918 27.8403C36.1241 27.8411 36.2539 27.8766 36.3682 27.9432C36.4825 28.0099 36.5774 28.1053 36.6433 28.22C36.7093 28.3347 36.744 28.4647 36.744 28.5971V36.3508L51.5877 27.9387C51.7029 27.8735 51.8331 27.8395 51.9654 27.8403C52.0977 27.8411 52.2275 27.8766 52.3418 27.9432C52.4562 28.0099 52.551 28.1053 52.617 28.22C52.6829 28.3347 52.7176 28.4647 52.7176 28.5971V53.7297C52.7176 53.9304 52.6379 54.1229 52.4959 54.2648C52.354 54.4067 52.1615 54.4865 51.9608 54.4865ZM4.79672 52.9729H51.2041V29.8957L36.3603 38.3078C36.2452 38.373 36.1149 38.4069 35.9826 38.4061C35.8503 38.4053 35.7205 38.3698 35.6062 38.3032C35.4919 38.2366 35.397 38.1412 35.3311 38.0264C35.2651 37.9117 35.2304 37.7817 35.2304 37.6494V29.8964L20.3867 38.3078C20.2715 38.373 20.1413 38.4069 20.009 38.4061C19.8767 38.4053 19.7469 38.3698 19.6326 38.3032C19.5182 38.2366 19.4234 38.1412 19.3575 38.0264C19.2915 37.9117 19.2568 37.7817 19.2568 37.6494V29.8957L4.79672 38.0898V52.9729Z" fill="#0E0E9C"/>
<path d="M45.6187 48.8487H39.2763C39.0756 48.8487 38.8831 48.769 38.7412 48.6271C38.5993 48.4852 38.5195 48.2927 38.5195 48.092V43.8632C38.5195 43.6625 38.5993 43.47 38.7412 43.3281C38.8831 43.1862 39.0756 43.1064 39.2763 43.1064H45.6194C45.8201 43.1064 46.0126 43.1862 46.1545 43.3281C46.2964 43.47 46.3762 43.6625 46.3762 43.8632V48.092C46.3762 48.1914 46.3566 48.2899 46.3185 48.3817C46.2804 48.4736 46.2246 48.5571 46.1543 48.6273C46.0839 48.6976 46.0004 48.7533 45.9085 48.7913C45.8166 48.8293 45.7181 48.8488 45.6187 48.8487ZM40.0323 47.3352H44.8619V44.62H40.033L40.0323 47.3352Z" fill="#0E0E9C"/>
<path d="M33.9905 48.8487H27.6474C27.4467 48.8487 27.2542 48.769 27.1123 48.6271C26.9704 48.4852 26.8906 48.2927 26.8906 48.092V43.8632C26.8906 43.6625 26.9704 43.47 27.1123 43.3281C27.2542 43.1862 27.4467 43.1064 27.6474 43.1064H33.9905C34.1912 43.1064 34.3837 43.1862 34.5256 43.3281C34.6675 43.47 34.7473 43.6625 34.7473 43.8632V48.092C34.7473 48.2927 34.6675 48.4852 34.5256 48.6271C34.3837 48.769 34.1912 48.8487 33.9905 48.8487ZM28.4041 47.3352H33.2338V44.62H28.4041V47.3352Z" fill="#0E0E9C"/>
<path d="M22.3628 48.8487H16.0204C15.8197 48.8487 15.6272 48.769 15.4853 48.6271C15.3434 48.4852 15.2637 48.2927 15.2637 48.092V43.8632C15.2637 43.6625 15.3434 43.47 15.4853 43.3281C15.6272 43.1862 15.8197 43.1064 16.0204 43.1064H22.3628C22.5635 43.1064 22.756 43.1862 22.8979 43.3281C23.0398 43.47 23.1196 43.6625 23.1196 43.8632V48.092C23.1196 48.2927 23.0398 48.4852 22.8979 48.6271C22.756 48.769 22.5635 48.8487 22.3628 48.8487ZM16.7772 47.3352H21.6061V44.62H16.7772V47.3352Z" fill="#0E0E9C"/>
<path d="M11.3642 15.0368C11.2531 15.0368 11.1432 15.0123 11.0426 14.9651C10.942 14.9178 10.853 14.849 10.7819 14.7634C10.7109 14.6779 10.6596 14.5778 10.6317 14.4701C10.6038 14.3625 10.5999 14.2501 10.6203 14.1408L11.6253 8.75874C11.3585 8.19144 11.2445 7.5643 11.2946 6.93941C11.3448 6.31452 11.5572 5.71355 11.911 5.19602C12.2647 4.67848 12.7476 4.26232 13.3116 3.98874C13.8757 3.71516 14.5014 3.59365 15.1268 3.63625C15.3714 3.09218 15.7474 2.61746 16.2211 2.25482C16.6947 1.89218 17.251 1.653 17.8401 1.55881C18.4291 1.46461 19.0323 1.51836 19.5954 1.71522C20.1585 1.91207 20.6638 2.24585 21.0659 2.68652C21.3589 2.6103 21.6606 2.57215 21.9634 2.57301C22.648 2.57146 23.3189 2.76552 23.897 3.13235C24.4751 3.49917 24.9364 4.0235 25.2266 4.64363C25.5167 5.26375 25.6238 5.95387 25.535 6.63275C25.4462 7.31163 25.1654 7.95104 24.7255 8.47571C24.7978 8.75989 24.8345 9.05198 24.8345 9.34522C24.8335 10.3011 24.4534 11.2175 23.7775 11.8934C23.1016 12.5693 22.1852 12.9494 21.2293 12.9504C20.8962 12.95 20.5649 12.9019 20.2455 12.8074C19.9497 13.4167 19.4887 13.9306 18.9149 14.2905C18.3412 14.6504 17.6778 14.8419 17.0006 14.8431C16.3757 14.8435 15.7617 14.6799 15.2199 14.3686L11.4936 15.0239C11.451 15.032 11.4077 15.0363 11.3642 15.0368ZM13.1297 8.94717L12.3087 13.3462L15.1692 12.843C15.2767 12.8128 15.3894 12.8069 15.4995 12.8254C15.6095 12.844 15.714 12.8867 15.8056 12.9504C16.1555 13.197 16.5732 13.3292 17.0013 13.3288C17.4849 13.3282 17.9534 13.1601 18.3271 12.8531C18.7009 12.5462 18.9568 12.1193 19.0514 11.645C19.0748 11.5264 19.1263 11.4152 19.2015 11.3207C19.2768 11.2261 19.3736 11.1509 19.4838 11.1014C19.5941 11.0519 19.7146 11.0295 19.8353 11.0362C19.9559 11.0428 20.0733 11.0782 20.1774 11.1395C20.4951 11.3316 20.8588 11.4341 21.2301 11.4361C21.573 11.4376 21.911 11.3543 22.214 11.1939C22.5171 11.0334 22.7758 10.8006 22.9674 10.5162C23.1589 10.2317 23.2773 9.90444 23.3121 9.56329C23.3468 9.22214 23.2969 8.87768 23.1666 8.56047C23.1084 8.4167 23.0957 8.25851 23.1304 8.10732C23.165 7.95612 23.2453 7.81923 23.3603 7.71517C23.579 7.52175 23.754 7.28411 23.8739 7.01798C23.9938 6.75184 24.0558 6.46328 24.0558 6.17139C24.0565 5.82277 23.9696 5.47956 23.8032 5.17322C23.6368 4.86689 23.3962 4.60722 23.1034 4.41804C22.8106 4.22885 22.475 4.1162 22.1273 4.0904C21.7796 4.06461 21.4311 4.12651 21.1135 4.27041C20.9484 4.34457 20.7622 4.35711 20.5887 4.30574C20.4151 4.25436 20.2657 4.14249 20.1676 3.99041C19.9459 3.64287 19.6261 3.36888 19.2487 3.2031C18.8713 3.03731 18.4532 2.98717 18.0473 3.05902C17.6413 3.13087 17.2659 3.32149 16.9683 3.60676C16.6707 3.89202 16.4644 4.25913 16.3755 4.66166C16.3532 4.76146 16.3109 4.85571 16.2511 4.93872C16.1914 5.02172 16.1155 5.09175 16.0279 5.14459C15.9403 5.19742 15.843 5.23196 15.7417 5.24612C15.6404 5.26027 15.5373 5.25375 15.4386 5.22695C15.0396 5.1152 14.6164 5.12517 14.2231 5.25559C13.8298 5.38602 13.4845 5.63094 13.2313 5.95897C12.9782 6.28699 12.8288 6.68315 12.8024 7.09664C12.7759 7.51013 12.8736 7.9221 13.0828 8.27971C13.1413 8.37992 13.1759 8.49224 13.1841 8.60797C13.1922 8.72371 13.1736 8.83976 13.1297 8.94717Z" fill="#0E0E9C"/>
</svg>
