<svg width="56" height="56" viewBox="0 0 56 56" fill="none" xmlns="http://www.w3.org/2000/svg">
<path d="M52.0625 15.75H41.125V9.1875C41.1241 8.37555 40.8012 7.59711 40.227 7.02298C39.6529 6.44884 38.8745 6.1259 38.0625 6.125H3.9375C3.12555 6.1259 2.34711 6.44884 1.77298 7.02298C1.19884 7.59711 0.875897 8.37555 0.875 9.1875V31.0625C0.875897 31.8745 1.19884 32.6529 1.77298 33.227C2.34711 33.8012 3.12555 34.1241 3.9375 34.125H6.125V40.25C6.12486 40.4232 6.17611 40.5925 6.27224 40.7365C6.36838 40.8805 6.50509 40.9928 6.66506 41.059C6.82503 41.1253 7.00107 41.1427 7.17089 41.1088C7.34072 41.075 7.49669 40.9916 7.61906 40.8691L14.362 34.125H14.875V40.6875C14.8759 41.4995 15.1988 42.2779 15.773 42.852C16.3471 43.4262 17.1255 43.7491 17.9375 43.75H41.638L48.3809 50.4941C48.5033 50.6166 48.6593 50.7 48.8291 50.7338C48.9989 50.7677 49.175 50.7503 49.3349 50.684C49.4949 50.6178 49.6316 50.5055 49.7278 50.3615C49.8239 50.2175 49.8751 50.0482 49.875 49.875V43.75H52.0625C52.8745 43.7491 53.6529 43.4262 54.227 42.852C54.8012 42.2779 55.1241 41.4995 55.125 40.6875V18.8125C55.1241 18.0006 54.8012 17.2221 54.227 16.648C53.6529 16.0738 52.8745 15.7509 52.0625 15.75ZM14 32.375C13.7679 32.3749 13.5452 32.467 13.3809 32.6309L7.875 38.138V33.25C7.875 33.0179 7.78281 32.7954 7.61872 32.6313C7.45462 32.4672 7.23206 32.375 7 32.375H3.9375C3.58949 32.3747 3.25582 32.2363 3.00974 31.9903C2.76366 31.7442 2.62529 31.4105 2.625 31.0625V9.1875C2.62529 8.83949 2.76366 8.50582 3.00974 8.25974C3.25582 8.01366 3.58949 7.87529 3.9375 7.875H38.0625C38.4105 7.87529 38.7442 8.01366 38.9903 8.25974C39.2363 8.50582 39.3747 8.83949 39.375 9.1875V31.0625C39.3747 31.4105 39.2363 31.7442 38.9903 31.9903C38.7442 32.2363 38.4105 32.3747 38.0625 32.375H14ZM53.375 40.6875C53.3747 41.0355 53.2363 41.3692 52.9903 41.6153C52.7442 41.8613 52.4105 41.9997 52.0625 42H49C48.7679 42 48.5454 42.0922 48.3813 42.2563C48.2172 42.4204 48.125 42.6429 48.125 42.875V47.763L42.6191 42.2559C42.4548 42.092 42.2321 41.9999 42 42H17.9375C17.5895 41.9997 17.2558 41.8613 17.0097 41.6153C16.7637 41.3692 16.6253 41.0355 16.625 40.6875V34.125H38.0625C38.8745 34.1241 39.6529 33.8012 40.227 33.227C40.8012 32.6529 41.1241 31.8745 41.125 31.0625V17.5H52.0625C52.4105 17.5003 52.7442 17.6387 52.9903 17.8847C53.2363 18.1308 53.3747 18.4645 53.375 18.8125V40.6875Z" fill="white"/>
<path d="M16.625 16.6254C16.625 15.7601 16.8816 14.9142 17.3623 14.1948C17.8431 13.4753 18.5263 12.9146 19.3258 12.5834C20.1252 12.2523 21.0049 12.1656 21.8535 12.3345C22.7022 12.5033 23.4817 12.9199 24.0936 13.5318C24.7054 14.1437 25.1221 14.9232 25.2909 15.7719C25.4597 16.6205 25.3731 17.5002 25.042 18.2996C24.7108 19.0991 24.1501 19.7823 23.4306 20.2631C22.7112 20.7438 21.8653 21.0004 21 21.0004C20.7679 21.0004 20.5454 21.0926 20.3813 21.2567C20.2172 21.4208 20.125 21.6433 20.125 21.8754V25.3754C20.125 25.6075 20.2172 25.83 20.3813 25.9941C20.5454 26.1582 20.7679 26.2504 21 26.2504C21.2321 26.2504 21.4546 26.1582 21.6187 25.9941C21.7828 25.83 21.875 25.6075 21.875 25.3754V22.6882C23.037 22.5204 24.1263 22.0223 25.0132 21.2531C25.9001 20.4838 26.5472 19.4759 26.8776 18.3493C27.2079 17.2227 27.2075 16.0249 26.8764 14.8986C26.5453 13.7722 25.8974 12.7647 25.01 11.9961C24.1225 11.2275 23.0329 10.7301 21.8708 10.5632C20.7087 10.3963 19.5231 10.5669 18.4552 11.0547C17.3873 11.5424 16.4821 12.3268 15.8474 13.3145C15.2126 14.3021 14.8751 15.4514 14.875 16.6254C14.875 16.8575 14.9672 17.08 15.1313 17.2441C15.2954 17.4082 15.5179 17.5004 15.75 17.5004C15.9821 17.5004 16.2046 17.4082 16.3687 17.2441C16.5328 17.08 16.625 16.8575 16.625 16.6254Z" fill="white"/>
<path d="M21 27.125C20.7679 27.125 20.5454 27.2172 20.3813 27.3813C20.2172 27.5454 20.125 27.7679 20.125 28V28.875C20.125 29.1071 20.2172 29.3296 20.3813 29.4937C20.5454 29.6578 20.7679 29.75 21 29.75C21.2321 29.75 21.4546 29.6578 21.6187 29.4937C21.7828 29.3296 21.875 29.1071 21.875 28.875V28C21.875 27.7679 21.7828 27.5454 21.6187 27.3813C21.4546 27.2172 21.2321 27.125 21 27.125Z" fill="white"/>
</svg>
