<svg width="56" height="56" viewBox="0 0 56 56" fill="none" xmlns="http://www.w3.org/2000/svg">
<path d="M6.30027 52.7998C4.70027 52.7998 3.30027 51.4998 3.30027 49.7998V47.5998C3.20027 40.6998 8.30027 34.6998 15.1003 33.5998L16.1003 33.3998L15.3003 32.7998C12.0003 30.3998 9.90027 26.1998 9.90027 21.7998C9.90027 14.5998 15.0003 8.7998 21.3003 8.7998C23.7003 8.7998 26.0003 9.6998 27.9003 11.2998L28.3003 11.6998L28.5003 11.1998C30.4003 6.4998 35.1003 3.2998 40.2003 3.2998C41.3003 3.2998 42.4003 3.3998 43.5003 3.6998C46.7003 4.5998 49.4003 6.6998 51.0003 9.5998C52.7003 12.5998 53.1003 15.8998 52.1003 19.0998C51.2003 22.2998 49.1003 24.9998 46.2003 26.5998C44.3003 27.6998 42.3003 28.1998 40.1003 28.1998C38.9003 28.1998 37.8003 27.9998 36.7003 27.6998C35.9003 27.4998 35.1003 27.1998 34.3003 26.7998H34.2003H33.9003C33.0003 27.2998 32.1003 27.5998 31.5003 27.7998L31.3003 27.8998C30.3003 29.9998 28.9003 31.7998 27.2003 32.9998L26.4003 33.5998L27.4003 33.7998C34.3003 34.8998 39.3003 40.7998 39.3003 47.7998V49.9998C39.3003 51.5998 38.0003 52.9998 36.3003 52.9998H6.30027V52.7998ZM17.5003 34.8998C10.5003 34.8998 4.80027 40.5998 4.80027 47.5998V49.7998C4.80027 50.5998 5.50027 51.2998 6.30027 51.2998H36.5003C37.3003 51.2998 38.0003 50.5998 38.0003 49.7998V47.5998C38.0003 40.5998 32.3003 34.8998 25.3003 34.8998H17.5003ZM21.3003 10.1998C15.8003 10.1998 11.4003 15.3998 11.4003 21.7998C11.4003 28.1998 15.9003 33.3998 21.3003 33.3998H21.4003C24.6003 33.3998 27.5003 31.5998 29.3003 28.5998L29.7003 27.9998H29.0003C28.3003 27.9998 27.6003 27.8998 26.9003 27.6998L25.2003 27.1998C25.0003 27.0998 24.7003 26.8998 24.7003 26.6998C24.6003 26.3998 24.7003 26.0998 25.0003 25.8998C26.6003 24.5998 27.9003 22.9998 28.9003 21.2998L29.0003 21.1998V20.8998C27.9003 18.5998 27.6003 15.8998 28.0003 13.3998V13.2998L27.9003 13.0998C26.0003 11.1998 23.7003 10.1998 21.3003 10.1998ZM34.3003 25.0998C34.4003 25.0998 34.6003 25.0998 34.7003 25.1998C35.6003 25.6998 36.5003 26.0998 37.3003 26.2998C38.3003 26.5998 39.3003 26.6998 40.3003 26.6998C45.2003 26.6998 49.6003 23.3998 50.9003 18.5998C51.7003 15.7998 51.4003 12.7998 49.9003 10.1998C48.4003 7.6998 46.0003 5.7998 43.2003 4.9998C42.2003 4.7998 41.2003 4.5998 40.2003 4.5998C35.2003 4.5998 30.9003 7.8998 29.6003 12.6998C28.8003 15.3998 29.2003 18.2998 30.5003 20.7998C30.6003 20.9998 30.6003 21.2998 30.5003 21.4998C29.7003 22.9998 28.7003 24.2998 27.4003 25.6998L27.0003 26.0998L27.7003 26.2998C28.3003 26.4998 28.9003 26.4998 29.6003 26.4998C31.2003 26.4998 32.7003 25.9998 34.0003 25.1998C34.0003 25.0998 34.1003 25.0998 34.3003 25.0998Z" fill="#0E0E9C"/>
<path d="M40.3998 18.6001C39.9998 18.6001 39.6998 18.3001 39.6998 17.9001V14.5001C39.6998 14.1001 39.9998 13.8001 40.3998 13.8001H41.4998C42.5998 13.8001 43.5998 12.9001 43.5998 11.7001C43.5998 10.5001 42.6998 9.6001 41.4998 9.6001H38.6998C37.8998 9.6001 37.1998 10.3001 37.1998 11.1001C37.1998 11.5001 36.8998 11.8001 36.4998 11.8001C36.0998 11.8001 35.7998 11.5001 35.7998 11.1001C35.7998 9.5001 37.0998 8.1001 38.7998 8.1001H41.5998C43.5998 8.1001 45.0998 9.6001 45.0998 11.6001C45.0998 13.6001 43.5998 15.1001 41.5998 15.1001H41.1998V17.7001C41.1998 18.3001 40.7998 18.6001 40.3998 18.6001Z" fill="#0E0E9C"/>
<path d="M40.4002 23.1002C40.7868 23.1002 41.1002 22.7868 41.1002 22.4002C41.1002 22.0136 40.7868 21.7002 40.4002 21.7002C40.0136 21.7002 39.7002 22.0136 39.7002 22.4002C39.7002 22.7868 40.0136 23.1002 40.4002 23.1002Z" fill="#0E0E9C"/>
</svg>
