<svg width="56" height="56" viewBox="0 0 56 56" fill="none" xmlns="http://www.w3.org/2000/svg">
<g clip-path="url(#clip0_63_4753)">
<path d="M16.5241 7.40579C14.9066 7.40579 13.3186 7.8373 11.932 8.65349C11.5417 8.88325 11.4114 9.38613 11.6412 9.77658C11.8712 10.167 12.3738 10.2971 12.7644 10.0674C13.8991 9.39964 15.1992 9.04649 16.5242 9.04649C20.6179 9.04649 23.9484 12.377 23.9484 16.4707C23.9484 20.5644 20.618 23.8949 16.5242 23.8949C12.4304 23.8949 9.09985 20.5644 9.09985 16.4707C9.09985 15.0702 9.49152 13.7065 10.2327 12.527C10.4736 12.1433 10.3582 11.637 9.97459 11.3959C9.59068 11.1548 9.08447 11.2704 8.84354 11.654C7.93792 13.0955 7.45927 14.761 7.45927 16.4706C7.45927 21.469 11.5258 25.5354 16.5242 25.5354C21.5225 25.5354 25.589 21.4689 25.589 16.4706C25.589 11.4723 21.5224 7.40579 16.5241 7.40579ZM47.3505 14.0389C48.8614 12.5281 48.8614 10.0696 47.3505 8.55876C45.8361 7.04434 43.3848 7.04423 41.8704 8.55876C40.3595 10.0696 40.3595 12.5281 41.8704 14.0389C43.3847 15.5534 45.836 15.5534 47.3505 14.0389ZM43.0306 9.71881C43.9034 8.84573 45.3172 8.84562 46.1903 9.71881C47.0616 10.59 47.0616 12.0076 46.1903 12.8788C45.3172 13.752 43.9039 13.7521 43.0306 12.8788C42.1593 12.0076 42.1593 10.59 43.0306 9.71881ZM36.3474 9.16147V13.436C36.1866 13.7395 36.008 14.2239 35.7365 15.0249C35.4361 15.9106 35.66 16.8712 36.3207 17.5318L38.3773 19.5884C39.0379 20.2491 39.9983 20.4728 40.8842 20.1726C41.6854 19.9011 42.1696 19.7223 42.4731 19.5616H46.7476C47.051 19.7223 47.5354 19.9009 48.3366 20.1726C49.2342 20.4769 50.192 20.2398 50.8435 19.5883L52.9001 17.5317C53.5607 16.871 53.7845 15.9104 53.4842 15.0249C53.2126 14.2239 53.0341 13.7396 52.8733 13.4359V9.16147C53.0341 8.85801 53.2127 8.37361 53.4842 7.57269C53.7845 6.68699 53.5608 5.72648 52.9001 5.06577L50.8435 3.00907C50.1827 2.34837 49.2219 2.1247 48.3366 2.42484C47.5354 2.69643 47.0512 2.87516 46.7477 3.03585H42.4732C42.1698 2.87516 41.6855 2.69654 40.8842 2.42484C39.9985 2.1247 39.0381 2.34848 38.3773 3.00918L36.3209 5.06566C35.6601 5.72637 35.4361 6.68699 35.7365 7.57246C36.0081 8.37372 36.1867 8.8579 36.3474 9.16147ZM37.7853 8.36974C37.734 8.26327 37.5926 7.93746 37.2903 7.04578C37.1921 6.75594 37.2652 6.44174 37.4811 6.22582L39.5375 4.16934C39.7535 3.95331 40.0677 3.88027 40.3577 3.97855C41.2493 4.2809 41.5751 4.42222 41.6814 4.47358C41.8276 4.60129 42.0179 4.67632 42.2213 4.67632H46.9997C47.203 4.67632 47.3934 4.60129 47.5396 4.47369C47.6461 4.42234 47.9717 4.2809 48.8634 3.97855C49.1534 3.88038 49.4675 3.95331 49.6835 4.16923L51.7401 6.22582C51.9562 6.44174 52.0291 6.75594 51.9308 7.04589C51.6285 7.93746 51.4871 8.26327 51.4358 8.36974C51.3081 8.51593 51.233 8.70628 51.233 8.9097V13.6881C51.233 13.8914 51.3081 14.0819 51.4358 14.228C51.4872 14.3344 51.6286 14.6601 51.9308 15.5518C52.0291 15.8417 51.9559 16.1559 51.7402 16.3719L49.6836 18.4284C49.4676 18.6444 49.1534 18.7174 48.8635 18.6192C47.9718 18.3168 47.646 18.1755 47.5397 18.124C47.3935 17.9964 47.2032 17.9214 46.9998 17.9214H42.2215C42.0182 17.9214 41.8277 17.9964 41.6815 18.1241C41.575 18.1755 41.2494 18.3169 40.3579 18.6192C40.0678 18.7173 39.7536 18.6444 39.5377 18.4285L37.4811 16.3719C37.2652 16.156 37.1921 15.8418 37.2904 15.5518C37.5928 14.6603 37.7341 14.3344 37.7854 14.2281C37.9132 14.0819 37.9882 13.8915 37.9882 13.6882V8.90959C37.988 8.70628 37.9131 8.51582 37.7853 8.36974ZM39.5545 30.6905C34.637 30.6905 30.6362 34.6912 30.6362 39.6088C30.6362 44.5265 34.6369 48.5272 39.5545 48.5272C44.4722 48.5272 48.4729 44.5265 48.4729 39.6088C48.4729 34.6912 44.4721 30.6905 39.5545 30.6905ZM39.5545 46.8864C35.5416 46.8864 32.2769 43.6217 32.2769 39.6087C32.2769 35.5958 35.5417 32.331 39.5545 32.331C43.5674 32.331 46.8322 35.5958 46.8322 39.6087C46.8323 43.6217 43.5674 46.8864 39.5545 46.8864ZM55.383 36.5881C56.0117 35.8096 56.1242 34.7305 55.6698 33.8387L53.6951 29.963C53.2407 29.0711 52.3002 28.5288 51.3019 28.579C49.6104 28.6656 48.7414 28.7467 48.2635 28.8411L43.1469 26.234C42.9424 25.7917 42.4974 25.041 41.573 23.6217C41.0271 22.7831 40.0355 22.3428 39.0467 22.4991L34.7505 23.1796C33.7618 23.3362 32.9547 24.0617 32.6946 25.0279C32.2544 26.6634 32.063 27.5149 32.0051 27.9986L27.9444 32.0592C27.4605 32.1172 26.609 32.3085 24.9737 32.7487C24.0075 33.0089 23.2818 33.8159 23.1255 34.8045L22.445 39.1008C22.2884 40.0894 22.729 41.081 23.5676 41.627C24.9869 42.5511 25.7376 42.9961 26.1799 43.2007L28.787 48.3177C28.6926 48.7958 28.6115 49.6648 28.5248 51.356C28.4736 52.3553 29.017 53.2946 29.9088 53.749L33.7845 55.7237C34.6685 56.174 35.7488 56.0711 36.5341 55.4367C37.8516 54.3724 38.5069 53.796 38.838 53.4386L44.5099 52.5403C44.9353 52.7778 45.7368 53.1236 47.3186 53.7285C48.2532 54.0861 49.3144 53.8597 50.0224 53.1519L51.3569 51.8174C51.6773 51.497 51.6773 50.9776 51.3568 50.6572C51.0364 50.3367 50.517 50.3369 50.1967 50.6572L48.8624 51.9918C48.6115 52.2427 48.2354 52.3229 47.9048 52.1963C46.2208 51.5522 45.493 51.2161 45.2929 51.0994C45.1112 50.9168 44.8488 50.8255 44.5829 50.8678L38.2519 51.8706C37.986 51.9128 37.7646 52.0805 37.6482 52.3104C37.4939 52.4832 36.9055 53.028 35.5032 54.1607C35.2276 54.3834 34.8453 54.4233 34.5294 54.2622L30.6537 52.2875C30.3378 52.1265 30.1453 51.7938 30.1635 51.4402C30.2559 49.6393 30.3506 48.8432 30.3995 48.6169C30.517 48.3876 30.5227 48.1099 30.4005 47.8702L27.4907 42.1589C27.3685 41.9192 27.1406 41.7604 26.8859 41.7207C26.6741 41.6274 25.9745 41.2361 24.4634 40.2523C24.1664 40.0591 24.0105 39.7077 24.0659 39.3575L24.7465 35.0613C24.802 34.711 25.0589 34.4251 25.401 34.3331C27.1419 33.8643 27.9282 33.7085 28.1588 33.6852C28.4131 33.7259 28.679 33.6456 28.8694 33.4553L33.4018 28.9229C33.592 28.7326 33.6726 28.4669 33.6317 28.2123C33.655 27.9819 33.8108 27.1954 34.2795 25.4544C34.3716 25.1124 34.6575 24.8555 35.0078 24.8L39.3039 24.1195C39.6546 24.0639 40.0054 24.2201 40.1987 24.5168C41.1825 26.0276 41.5737 26.7274 41.6672 26.9394C41.7068 27.194 41.8655 27.4219 42.1054 27.5441L47.8166 30.4541C48.0567 30.5763 48.3342 30.5707 48.5634 30.4531C48.7899 30.404 49.586 30.3092 51.3865 30.217C51.7413 30.1995 52.0729 30.3913 52.2339 30.7073L54.2086 34.583C54.3697 34.8989 54.3298 35.2812 54.1073 35.5567C52.9741 36.9594 52.4296 37.5477 52.2568 37.702C52.027 37.8185 51.8593 38.0399 51.8172 38.3056L50.8144 44.6366C50.7722 44.9024 50.8633 45.1647 51.0459 45.3466C51.1625 45.5467 51.4986 46.2745 52.1426 47.9584C52.1752 48.0436 52.1945 48.1327 52.2003 48.2232C52.2286 48.6754 52.6187 49.0189 53.0703 48.9907C53.5225 48.9624 53.866 48.5729 53.8378 48.1207C53.8218 47.8645 53.7672 47.6129 53.6751 47.3724C53.0702 45.7906 52.7243 44.9892 52.4868 44.5638L53.3852 38.8917C53.7422 38.5607 54.3186 37.9054 55.383 36.5881ZM36.3276 36.3817C36.3275 36.3817 36.3275 36.3817 36.3275 36.3817C34.5441 38.165 34.5438 41.0521 36.3275 42.8358C38.111 44.6192 40.9978 44.6198 42.7816 42.8358C44.565 41.0525 44.5655 38.1655 42.7817 36.3817C40.9981 34.5981 38.1113 34.5979 36.3276 36.3817ZM41.6214 41.6757C40.4792 42.8182 38.6302 42.8183 37.4875 41.6757C36.3452 40.5334 36.3451 38.6842 37.4876 37.5418H37.4875C38.63 36.3996 40.4791 36.3992 41.6214 37.5418C42.7635 38.6837 42.7641 40.5332 41.6214 41.6757ZM27.1946 29.2267L29.2801 27.1411C30.0232 26.3979 30.2324 25.2945 29.8129 24.3301C29.2684 23.0789 28.9459 22.3986 28.7275 22.0134L29.864 17.772C30.2456 17.5476 30.8652 17.1198 31.9623 16.3085C32.8077 15.6832 33.1785 14.6231 32.9063 13.6076L32.143 10.7587C31.871 9.74327 31.0199 9.01041 29.9752 8.89166C28.619 8.73749 27.8687 8.67674 27.426 8.67319L24.3213 5.56844C24.3178 5.12576 24.2571 4.37541 24.1028 3.01936C23.9841 1.97441 23.2512 1.12347 22.2359 0.851327L19.387 0.0880312C18.3714 -0.183997 17.3113 0.186528 16.6861 1.03216C15.8748 2.12924 15.4468 2.74877 15.2226 3.13048L10.9815 4.26706C10.5963 4.0486 9.91605 3.72611 8.66459 3.18172C7.70064 2.76205 6.59704 2.97111 5.85366 3.7146L3.76785 5.80007C3.0247 6.54334 2.81553 7.64672 3.23509 8.611C3.77959 9.86224 4.10208 10.5426 4.32054 10.9278L3.18407 15.1691C2.80247 15.3934 2.18294 15.8212 1.08564 16.6327C0.24034 17.258 -0.130296 18.3181 0.141732 19.3335L0.904917 22.1825C1.17694 23.1977 2.028 23.9306 3.07284 24.0494C4.42889 24.2036 5.17924 24.2644 5.62203 24.2678L8.72689 27.3727C8.73021 27.8153 8.79097 28.5657 8.94514 29.9218C9.06411 30.9668 9.79697 31.8176 10.8121 32.0898L13.661 32.8531C14.6861 33.1276 15.7425 32.7464 16.3617 31.909C17.1735 30.8117 17.6013 30.1923 17.8256 29.8106L22.0668 28.6741C22.4518 28.8926 23.1322 29.2151 24.3836 29.7596C25.3477 30.179 26.4511 29.97 27.1946 29.2267ZM22.0092 26.991L17.034 28.3241C16.7453 28.4014 16.5285 28.6268 16.454 28.9037C16.3905 29.0221 16.1179 29.48 15.0429 30.9333C14.8212 31.2331 14.4455 31.3644 14.0859 31.2682L11.237 30.5049C10.8773 30.4085 10.6176 30.1068 10.5754 29.7362C10.3712 27.9397 10.364 27.4073 10.3681 27.2731C10.4423 26.9959 10.3669 26.6925 10.1558 26.4812L6.51359 22.839C6.3021 22.6277 5.99886 22.5523 5.72163 22.6265C5.58684 22.6309 5.05462 22.6236 3.25844 22.4193C2.88791 22.3772 2.58622 22.1175 2.48972 21.7579L1.72642 18.909C1.63003 18.5493 1.7614 18.1736 2.06131 17.9519C3.51486 16.8769 3.97259 16.6043 4.09101 16.5409C4.36791 16.4665 4.59324 16.2495 4.67059 15.9609L6.00362 10.9855C6.08109 10.6968 5.99444 10.3963 5.79169 10.1935C5.72108 10.0793 5.46078 9.61445 4.73954 7.95682C4.59091 7.61496 4.66484 7.22374 4.92824 6.96046L7.01371 4.87498C7.27711 4.61158 7.66833 4.53765 8.01008 4.6864C9.66748 5.40753 10.1326 5.66771 10.2468 5.73843C10.4497 5.94118 10.7504 6.02772 11.0389 5.95037L16.014 4.61723C16.3027 4.53987 16.5195 4.31454 16.594 4.03764C16.6575 3.91923 16.9301 3.46149 18.0051 2.00806C18.2267 1.70814 18.6025 1.57666 18.9622 1.67317L21.811 2.43657C22.1707 2.53297 22.4305 2.83454 22.4725 3.20518C22.6768 5.00136 22.684 5.53402 22.6799 5.66838C22.6058 5.9455 22.6811 6.24895 22.8923 6.46022L26.5345 10.1024C26.7457 10.3137 27.0494 10.3887 27.3263 10.3149C27.4603 10.3105 27.993 10.3178 29.7896 10.5221C30.16 10.5641 30.4617 10.8239 30.5581 11.1835L31.3214 14.0324C31.4178 14.3921 31.2863 14.7678 30.9864 14.9895C29.5332 16.0644 29.0752 16.337 28.9568 16.4005C28.6798 16.475 28.4546 16.6919 28.3772 16.9806L27.0442 21.9559C26.9668 22.2445 27.0534 22.5449 27.256 22.7478C27.3266 22.8621 27.5869 23.3269 28.3082 24.9847C28.4569 25.3267 28.383 25.7177 28.1195 25.9811L26.0341 28.0666C25.7707 28.33 25.3796 28.404 25.0377 28.2551C23.3802 27.5339 22.9152 27.2737 22.8011 27.203C22.5983 27.0004 22.298 26.9137 22.0092 26.991ZM19.895 19.8414C21.7536 17.9827 21.7536 14.9584 19.8949 13.0997C18.032 11.2368 15.0164 11.2364 13.1531 13.0997C11.2945 14.9584 11.2945 17.9827 13.1531 19.8414C15.0161 21.7044 18.0315 21.7047 19.895 19.8414ZM14.3132 14.2598C15.535 13.038 17.5129 13.0379 18.7347 14.2598C19.9538 15.4789 19.9538 17.4624 18.7348 18.6814C17.5129 19.9032 15.5351 19.9034 14.3132 18.6814C13.0943 17.4623 13.0943 15.4788 14.3132 14.2598Z" fill="#0E0E9C"/>
</g>
<defs>
<clipPath id="clip0_63_4753">
<rect width="56" height="56" fill="white"/>
</clipPath>
</defs>
</svg>
