<svg width="56" height="56" viewBox="0 0 56 56" fill="none" xmlns="http://www.w3.org/2000/svg">
<path d="M32.8744 31.7386C32.8461 31.7386 32.8178 31.737 32.7897 31.734C32.0049 31.6455 31.289 31.5827 30.6026 31.5403C30.5032 31.5342 30.406 31.5087 30.3165 31.465C30.227 31.4214 30.147 31.3606 30.081 31.286C30.0151 31.2114 29.9644 31.1246 29.932 31.0305C29.8995 30.9364 29.886 30.8368 29.892 30.7374C29.8981 30.638 29.9237 30.5408 29.9673 30.4513C30.0109 30.3618 30.0718 30.2818 30.1463 30.2158C30.2209 30.1498 30.3077 30.0992 30.4018 30.0667C30.496 30.0343 30.5956 30.0207 30.695 30.0268C31.4071 30.0707 32.1472 30.1358 32.9577 30.2266C33.1501 30.2478 33.327 30.3418 33.4522 30.4895C33.5774 30.6372 33.6412 30.8272 33.6305 31.0205C33.6198 31.2137 33.5355 31.3956 33.3949 31.5286C33.2542 31.6616 33.068 31.7357 32.8744 31.7355V31.7386Z" fill="#0E0E9C"/>
<path d="M11.3515 45.4583C11.1508 45.4583 10.9583 45.3786 10.8164 45.2367C10.6745 45.0948 10.5947 44.9023 10.5947 44.7016V34.107C10.5946 33.9588 10.638 33.8138 10.7195 33.69C10.801 33.5663 10.9171 33.4692 11.0533 33.4108C13.1881 32.4967 15.3944 31.7596 17.65 31.2071C17.8451 31.1595 18.051 31.1914 18.2226 31.2957C18.3942 31.4 18.5173 31.5682 18.5649 31.7633C18.6125 31.9584 18.5806 32.1644 18.4763 32.336C18.372 32.5076 18.2038 32.6307 18.0087 32.6782C15.9955 33.1707 14.023 33.8164 12.1082 34.6095V43.6724C13.9431 43.1193 15.8068 42.6663 17.6908 42.3155C19.5267 41.9735 21.3339 41.726 23.0638 41.5784C23.8766 41.5028 24.6167 41.4543 25.322 41.4271C27.0731 41.3438 28.8787 41.3416 30.6828 41.4195C31.4396 41.4581 32.1926 41.5043 32.9448 41.5709C34.7474 41.7225 36.5408 41.9683 38.3178 42.3072C40.1999 42.6563 42.061 43.1111 43.892 43.6694V34.6095C41.9765 33.8163 40.0032 33.1706 37.9893 32.6782C37.7942 32.6307 37.626 32.5076 37.5217 32.336C37.4174 32.1644 37.3855 31.9584 37.4331 31.7633C37.4807 31.5682 37.6038 31.4 37.7754 31.2957C37.9469 31.1914 38.1529 31.1595 38.348 31.2071C40.6036 31.7595 42.8099 32.4966 44.9447 33.4108C45.0809 33.4692 45.197 33.5663 45.2785 33.69C45.36 33.8138 45.4034 33.9588 45.4033 34.107V44.7016C45.4032 44.821 45.3748 44.9388 45.3205 45.0452C45.2662 45.1516 45.1875 45.2437 45.0907 45.3138C44.994 45.3847 44.8817 45.4315 44.7632 45.45C44.6447 45.4686 44.5234 45.4585 44.4096 45.4205C42.3213 44.7382 40.1898 44.1957 38.0294 43.7965C36.3026 43.4665 34.5597 43.2273 32.8078 43.0798C32.0715 43.0117 31.3405 42.9671 30.6087 42.9285C28.8538 42.8528 27.0943 42.8528 25.3871 42.9361C24.706 42.9641 23.9871 43.0117 23.1925 43.0874C21.5087 43.2304 19.7515 43.4718 17.9648 43.8041C15.8045 44.2068 13.6721 44.7472 11.5808 45.422C11.5067 45.4461 11.4293 45.4583 11.3515 45.4583Z" fill="#0E0E9C"/>
<path d="M23.1259 31.7385C22.9323 31.7386 22.7461 31.6645 22.6054 31.5315C22.4648 31.3985 22.3805 31.2167 22.3698 31.0234C22.3591 30.8301 22.4229 30.6401 22.5481 30.4925C22.6732 30.3448 22.8502 30.2507 23.0426 30.2295C23.8531 30.1387 24.5932 30.0736 25.3053 30.0297C25.4047 30.0237 25.5043 30.0372 25.5985 30.0697C25.6926 30.1021 25.7794 30.1527 25.854 30.2187C25.9285 30.2847 25.9894 30.3647 26.033 30.4542C26.0766 30.5437 26.1022 30.6409 26.1083 30.7403C26.1143 30.8397 26.1007 30.9393 26.0683 31.0334C26.0359 31.1276 25.9852 31.2144 25.9193 31.289C25.8533 31.3635 25.7732 31.4243 25.6837 31.468C25.5943 31.5116 25.497 31.5372 25.3977 31.5432C24.7113 31.5856 23.9954 31.6484 23.2106 31.737C23.1824 31.739 23.1541 31.7395 23.1259 31.7385Z" fill="#0E0E9C"/>
<path d="M53.7299 50.381H44.6488C44.4481 50.381 44.2557 50.3013 44.1137 50.1594C43.9718 50.0175 43.8921 49.825 43.8921 49.6243V39.0297C43.8921 38.829 43.9718 38.6365 44.1137 38.4946C44.2557 38.3527 44.4481 38.2729 44.6488 38.2729H53.7299C53.8628 38.2728 53.9934 38.3077 54.1086 38.3741C54.2237 38.4404 54.3194 38.5359 54.3859 38.651C54.4524 38.7661 54.4874 38.8966 54.4874 39.0295C54.4875 39.1624 54.4525 39.293 54.386 39.4081L51.5747 44.2899L54.3883 49.252C54.4534 49.3671 54.4871 49.4972 54.4862 49.6294C54.4853 49.7616 54.4498 49.8913 54.3832 50.0055C54.3166 50.1197 54.2213 50.2145 54.1066 50.2804C53.992 50.3463 53.8621 50.381 53.7299 50.381ZM45.4056 48.8675H52.4306L50.0445 44.66C49.9791 44.5456 49.9447 44.416 49.9447 44.2842C49.9447 44.1524 49.9791 44.0229 50.0445 43.9085L52.4192 39.7865H45.4056V48.8675Z" fill="#0E0E9C"/>
<path d="M11.3513 50.381H2.27024C2.13792 50.381 2.00792 50.3463 1.89319 50.2804C1.77847 50.2145 1.68304 50.1196 1.61642 50.0053C1.5498 49.891 1.51432 49.7612 1.51352 49.6289C1.51272 49.4965 1.54663 49.3663 1.61186 49.2512L4.42548 44.2892L1.61413 39.4073C1.54787 39.2923 1.51306 39.1618 1.51318 39.029C1.51331 38.8962 1.54838 38.7658 1.61486 38.6508C1.68135 38.5359 1.77691 38.4404 1.89195 38.3741C2.00699 38.3078 2.13745 38.2729 2.27024 38.2729H11.3513C11.552 38.2729 11.7445 38.3527 11.8864 38.4946C12.0283 38.6365 12.1081 38.829 12.1081 39.0297V49.6243C12.1081 49.825 12.0283 50.0175 11.8864 50.1594C11.7445 50.3013 11.552 50.381 11.3513 50.381ZM3.56959 48.8675H10.5946V39.7865H3.57867L5.95338 43.9085C6.01882 44.0229 6.05324 44.1524 6.05324 44.2842C6.05324 44.416 6.01882 44.5456 5.95338 44.66L3.56959 48.8675Z" fill="#0E0E9C"/>
<path d="M33.8151 25.0299C33.6925 25.0298 33.5717 24.9999 33.4632 24.9428L28.0002 22.071L22.5372 24.9466C22.4122 25.0123 22.2713 25.0418 22.1305 25.0316C21.9897 25.0214 21.8545 24.9721 21.7403 24.8891C21.626 24.8061 21.5373 24.6928 21.4841 24.562C21.4308 24.4312 21.4153 24.2882 21.4391 24.149L22.4827 18.0654L18.0632 13.758C17.9621 13.6594 17.8905 13.5345 17.8566 13.3974C17.8227 13.2603 17.8278 13.1165 17.8715 12.9821C17.9151 12.8478 17.9954 12.7283 18.1034 12.6373C18.2114 12.5463 18.3427 12.4873 18.4825 12.467L24.5903 11.5785L27.3191 6.04133C27.3887 5.92317 27.4879 5.82522 27.607 5.75717C27.726 5.68912 27.8608 5.65332 27.9979 5.65332C28.1351 5.65332 28.2698 5.68912 28.3889 5.75717C28.5079 5.82522 28.6072 5.92317 28.6767 6.04133L31.4102 11.5785L37.5179 12.4662C37.6577 12.4865 37.789 12.5455 37.897 12.6365C38.005 12.7276 38.0853 12.847 38.1289 12.9814C38.1726 13.1157 38.1777 13.2596 38.1438 13.3967C38.1099 13.5338 38.0384 13.6587 37.9372 13.7572L33.5177 18.0647L34.5613 24.1482C34.5799 24.2569 34.5746 24.3683 34.5457 24.4747C34.5168 24.581 34.465 24.6798 34.3939 24.7641C34.3228 24.8483 34.2342 24.916 34.1342 24.9625C34.0343 25.0089 33.9254 25.0329 33.8151 25.0329V25.0299ZM28.0002 20.4591C28.1228 20.4589 28.2435 20.4885 28.3521 20.5453L32.8102 22.8913L31.958 17.927C31.9375 17.806 31.9466 17.6818 31.9847 17.5651C32.0228 17.4484 32.0887 17.3428 32.1767 17.2572L35.7827 13.7421L30.8002 13.0164C30.6788 12.9987 30.5635 12.9518 30.4642 12.8797C30.3649 12.8076 30.2847 12.7124 30.2304 12.6024L28.0002 8.08609L25.7716 12.6024C25.7172 12.7124 25.637 12.8076 25.5377 12.8797C25.4385 12.9518 25.3231 12.9987 25.2017 13.0164L20.2177 13.7406L23.8237 17.2542C23.9117 17.3397 23.9776 17.4454 24.0157 17.5621C24.0538 17.6787 24.063 17.8029 24.0424 17.9239L23.1903 22.8883L27.6483 20.5423C27.7572 20.4865 27.8779 20.458 28.0002 20.4591Z" fill="#0E0E9C"/>
<path d="M47.1247 27.2593C47.0021 27.2589 46.8814 27.229 46.7728 27.1723L43.3772 25.3863L39.9816 27.1723C39.8566 27.2382 39.7157 27.2678 39.5747 27.2577C39.4338 27.2476 39.2984 27.1983 39.1841 27.1153C39.0697 27.0323 38.9809 26.9189 38.9276 26.788C38.8744 26.6571 38.8589 26.5139 38.8828 26.3746L39.5314 22.5909L36.7843 19.9135C36.6831 19.8149 36.6116 19.6899 36.5777 19.5527C36.5439 19.4156 36.5491 19.2717 36.5928 19.1373C36.6365 19.003 36.7169 18.8835 36.825 18.7925C36.9331 18.7015 37.0645 18.6426 37.2043 18.6224L41.001 18.0707L42.6984 14.6305C42.768 14.5125 42.8672 14.4148 42.9862 14.3468C43.1052 14.2789 43.2398 14.2432 43.3768 14.2432C43.5138 14.2432 43.6485 14.2789 43.7674 14.3468C43.8864 14.4148 43.9856 14.5125 44.0552 14.6305L45.7534 18.0707L49.5508 18.6224C49.6905 18.6428 49.8217 18.7019 49.9296 18.793C50.0375 18.8841 50.1177 19.0036 50.1613 19.1379C50.2048 19.2722 50.2099 19.416 50.176 19.5531C50.1421 19.6901 50.0705 19.815 49.9693 19.9135L47.2215 22.5924L47.8701 26.3762C47.8887 26.4848 47.8834 26.5962 47.8544 26.7026C47.8255 26.8089 47.7737 26.9077 47.7027 26.992C47.6316 27.0762 47.543 27.1439 47.443 27.1904C47.343 27.2368 47.2341 27.2608 47.1239 27.2608L47.1247 27.2593ZM43.3772 23.7782C43.4997 23.778 43.6205 23.8077 43.7291 23.8645L46.1197 25.1215L45.6656 22.4592C45.6449 22.3382 45.654 22.2141 45.6919 22.0974C45.7299 21.9807 45.7957 21.8751 45.8836 21.7895L47.8156 19.9029L45.1419 19.5146C45.0207 19.4969 44.9055 19.4499 44.8064 19.3778C44.7072 19.3057 44.6271 19.2106 44.5729 19.1007L43.3772 16.6791L42.1823 19.1007C42.128 19.2107 42.0477 19.3059 41.9484 19.378C41.8492 19.4501 41.7339 19.497 41.6124 19.5146L38.9396 19.9029L40.8731 21.7879C40.961 21.8735 41.0267 21.9792 41.0647 22.0959C41.1027 22.2126 41.1117 22.3367 41.091 22.4577L40.637 25.1199L43.0276 23.863C43.1354 23.8062 43.2553 23.7761 43.3772 23.7752V23.7782Z" fill="#0E0E9C"/>
<path d="M16.3709 27.2593C16.2481 27.2588 16.1272 27.229 16.0183 27.1722L12.6227 25.3863L9.22716 27.1722C9.10218 27.2379 8.96131 27.2674 8.82048 27.2572C8.67965 27.247 8.54448 27.1977 8.43024 27.1147C8.316 27.0317 8.22726 26.9184 8.17404 26.7876C8.12082 26.6568 8.10526 26.5138 8.1291 26.3746L8.77764 22.5908L6.03062 19.9134C5.92945 19.8149 5.85786 19.6901 5.82393 19.553C5.79 19.416 5.7951 19.2722 5.83863 19.1379C5.88217 19.0035 5.96242 18.8841 6.0703 18.793C6.17818 18.7019 6.30939 18.6428 6.4491 18.6224L10.2465 18.0707L11.9447 14.6305C12.0074 14.5036 12.1045 14.3968 12.2249 14.3223C12.3453 14.2477 12.4842 14.2085 12.6258 14.209C12.7673 14.2085 12.9062 14.2477 13.0266 14.3223C13.147 14.3968 13.2441 14.5036 13.3068 14.6305L15.0042 18.0707L18.8009 18.6224C18.9407 18.6426 19.0721 18.7015 19.1802 18.7925C19.2883 18.8835 19.3687 19.0029 19.4124 19.1373C19.4561 19.2716 19.4614 19.4155 19.4275 19.5527C19.3937 19.6899 19.3221 19.8148 19.2209 19.9134L16.4739 22.5908L17.1224 26.3746C17.141 26.4833 17.1357 26.5947 17.1068 26.701C17.0779 26.8074 17.0261 26.9062 16.955 26.9904C16.8839 27.0747 16.7953 27.1424 16.6953 27.1888C16.5954 27.2353 16.4865 27.2593 16.3762 27.2593H16.3709ZM8.18435 19.9028L10.1186 21.7879C10.2065 21.8735 10.2723 21.9792 10.3103 22.0959C10.3482 22.2125 10.3573 22.3367 10.3366 22.4576L9.88251 25.1199L12.2731 23.8629C12.3817 23.8058 12.5026 23.7759 12.6254 23.7759C12.7481 23.7759 12.869 23.8058 12.9776 23.8629L15.3682 25.1199L14.9142 22.4576C14.8935 22.3367 14.9025 22.2125 14.9405 22.0959C14.9785 21.9792 15.0442 21.8735 15.1321 21.7879L17.0604 19.9028L14.3875 19.5146C14.2661 19.497 14.1507 19.4501 14.0515 19.378C13.9522 19.3059 13.872 19.2107 13.8176 19.1007L12.6227 16.679L11.4271 19.1007C11.3728 19.2106 11.2927 19.3057 11.1936 19.3778C11.0944 19.4499 10.9793 19.4969 10.858 19.5146L8.18435 19.9028Z" fill="#0E0E9C"/>
</svg>
