<svg width="56" height="56" viewBox="0 0 56 56" fill="none" xmlns="http://www.w3.org/2000/svg">
<path d="M46.4946 42.7872C46.354 42.7872 46.2163 42.748 46.0967 42.6742C45.9772 42.6003 45.8805 42.4946 45.8177 42.3689C45.7548 42.2432 45.7282 42.1024 45.7409 41.9625C45.7535 41.8225 45.8048 41.6888 45.8891 41.5764C48.3746 38.2569 49.8996 34.318 50.2973 30.1902C50.3042 30.0893 50.3313 29.9908 50.3769 29.9006C50.4226 29.8103 50.4858 29.7302 50.563 29.6648C50.6402 29.5994 50.7296 29.5501 50.8261 29.5199C50.9227 29.4897 51.0243 29.4791 51.1249 29.4888C51.2256 29.4986 51.3233 29.5284 51.4122 29.5765C51.5012 29.6246 51.5796 29.69 51.6428 29.769C51.7061 29.8479 51.7528 29.9387 51.7804 30.036C51.8079 30.1333 51.8157 30.2351 51.8032 30.3355C51.3793 34.7396 49.7528 38.9424 47.1015 42.4845C47.0308 42.5787 46.9392 42.6551 46.8338 42.7076C46.7285 42.7602 46.6123 42.7874 46.4946 42.7872Z" fill="#0E0E9C"/>
<path d="M33.713 51.4292C33.5287 51.429 33.3508 51.3615 33.2126 51.2394C33.0745 51.1174 32.9857 50.9491 32.9629 50.7662C32.94 50.5833 32.9847 50.3984 33.0885 50.2461C33.1924 50.0938 33.3482 49.9846 33.5268 49.9391C34.2101 49.7657 34.8831 49.5542 35.5428 49.3057C35.6358 49.2706 35.7348 49.2541 35.8341 49.2572C35.9334 49.2603 36.0312 49.283 36.1218 49.3239C36.2123 49.3648 36.294 49.4231 36.362 49.4956C36.4301 49.568 36.4832 49.6532 36.5183 49.7461C36.5534 49.8391 36.5699 49.9381 36.5668 50.0374C36.5636 50.1367 36.541 50.2345 36.5001 50.3251C36.4592 50.4157 36.4009 50.4973 36.3284 50.5653C36.256 50.6334 36.1708 50.6865 36.0778 50.7216C35.3653 50.9887 34.6384 51.2161 33.9007 51.4027C33.8394 51.4193 33.7764 51.4282 33.713 51.4292Z" fill="#0E0E9C"/>
<path d="M27.6972 52.2164C21.2768 52.2091 15.1215 49.6555 10.5817 45.1156C6.04183 40.5758 3.48817 34.4205 3.48096 28.0002C3.48096 27.2018 3.52031 26.4004 3.59825 25.6171C3.61832 25.4174 3.7169 25.2339 3.87231 25.1069C4.02771 24.9798 4.2272 24.9198 4.4269 24.9398C4.6266 24.9599 4.81015 25.0585 4.93717 25.2139C5.06419 25.3693 5.12427 25.5688 5.1042 25.7685C5.02852 26.5025 4.99447 27.2532 4.99447 28.0017C5.00128 34.0207 7.39535 39.7913 11.6515 44.0474C15.9076 48.3035 21.6781 50.6975 27.6972 50.7044C27.8886 50.7044 28.0831 50.7044 28.2685 50.6915C28.3679 50.6829 28.468 50.6943 28.5629 50.725C28.6578 50.7556 28.7456 50.8049 28.8212 50.87C28.8967 50.9351 28.9585 51.0146 29.003 51.1039C29.0474 51.1932 29.0735 51.2904 29.0798 51.39C29.0946 51.5901 29.0293 51.7878 28.8983 51.9398C28.7673 52.0918 28.5814 52.1856 28.3813 52.2005C28.1588 52.2164 27.928 52.2164 27.6972 52.2164Z" fill="#0E0E9C"/>
<path d="M40.5623 48.3643C40.3987 48.3644 40.2394 48.3115 40.1085 48.2134C39.9775 48.1153 39.8818 47.9775 39.8357 47.8205C39.7897 47.6634 39.7958 47.4957 39.8531 47.3425C39.9105 47.1892 40.0159 47.0587 40.1537 46.9704C40.7834 46.5649 41.3898 46.1243 41.9699 45.6506C42.047 45.5879 42.1357 45.541 42.231 45.5126C42.3262 45.4841 42.4261 45.4748 42.525 45.4849C42.6239 45.4951 42.7198 45.5247 42.8072 45.5719C42.8947 45.6192 42.9719 45.6832 43.0346 45.7603C43.0974 45.8374 43.1443 45.9262 43.1727 46.0214C43.2011 46.1166 43.2105 46.2166 43.2003 46.3154C43.1901 46.4143 43.1605 46.5102 43.1133 46.5976C43.066 46.6851 43.002 46.7624 42.9249 46.8251C42.3005 47.3343 41.6482 47.8083 40.971 48.2448C40.849 48.3229 40.7072 48.3644 40.5623 48.3643Z" fill="#0E0E9C"/>
<path d="M50.854 24.9882C50.6743 24.988 50.5006 24.9239 50.3639 24.8073C50.2272 24.6906 50.1364 24.5292 50.1078 24.3518C49.2629 19.0231 46.5388 14.1726 42.4284 10.6778C38.318 7.18291 33.0925 5.2744 27.6973 5.29743C23.0709 5.31254 18.5584 6.73331 14.7579 9.37141C10.9574 12.0095 8.04839 15.7403 6.4165 20.0693C6.38328 20.1644 6.33139 20.252 6.26389 20.3268C6.19639 20.4016 6.11463 20.4621 6.02341 20.5049C5.93219 20.5477 5.83334 20.5719 5.73267 20.5759C5.632 20.58 5.53152 20.5639 5.43714 20.5287C5.34276 20.4934 5.25638 20.4396 5.18305 20.3705C5.10973 20.3014 5.05094 20.2184 5.01014 20.1262C4.96934 20.0341 4.94734 19.9348 4.94545 19.834C4.94355 19.7333 4.96179 19.6332 4.9991 19.5396C6.73955 14.9222 9.84227 10.9428 13.8959 8.12897C17.9496 5.31517 22.7627 3.79985 27.6973 3.78392C33.4528 3.75908 39.0273 5.79502 43.4121 9.52342C47.7969 13.2518 50.7025 18.4264 51.6032 24.1112C51.6351 24.3092 51.5869 24.5119 51.4694 24.6745C51.3519 24.8371 51.1747 24.9464 50.9766 24.9784C50.9361 24.9851 50.8951 24.9884 50.854 24.9882Z" fill="#0E0E9C"/>
<path d="M16.1059 40.6909C15.908 40.6919 15.7177 40.615 15.5761 40.4767C13.6049 38.5662 12.1141 36.2159 11.2259 33.6183C10.3378 31.0208 10.0774 28.2498 10.4663 25.5323C10.8551 22.8147 11.8821 20.228 13.463 17.9837C15.044 15.7394 17.134 13.9015 19.562 12.6205C19.7388 12.5308 19.9437 12.514 20.1327 12.5738C20.3217 12.6337 20.4797 12.7653 20.5727 12.9404C20.6657 13.1154 20.6863 13.32 20.63 13.5101C20.5738 13.7002 20.4451 13.8607 20.2718 13.9569C18.0546 15.1262 16.1458 16.8041 14.7019 18.8531C13.258 20.9021 12.3199 23.264 11.9646 25.7454C11.6092 28.2268 11.8467 30.757 12.6576 33.1289C13.4684 35.5008 14.8296 37.6469 16.6296 39.3915C16.7377 39.4966 16.8119 39.6316 16.8428 39.7792C16.8736 39.9267 16.8597 40.0802 16.8028 40.2198C16.7459 40.3594 16.6486 40.4788 16.5233 40.5628C16.3981 40.6467 16.2506 40.6913 16.0998 40.6909H16.1059Z" fill="#0E0E9C"/>
<path d="M27.6972 45.4055C25.3389 45.408 23.0048 44.929 20.838 43.998C20.6535 43.919 20.5078 43.7699 20.4332 43.5836C20.3585 43.3973 20.361 43.1889 20.4399 43.0043C20.5189 42.8198 20.668 42.6742 20.8543 42.5995C21.0407 42.5249 21.249 42.5273 21.4336 42.6063C23.6008 43.5354 25.9477 43.9707 28.304 43.8804C30.6603 43.7901 32.9669 43.1766 35.0567 42.0843C37.1465 40.9921 38.9671 39.4485 40.3864 37.5654C41.8057 35.6824 42.7881 33.5071 43.2625 31.1973C43.7369 28.8875 43.6913 26.501 43.1291 24.211C42.5669 21.921 41.5021 19.7848 40.0119 17.9573C38.5218 16.1298 36.6436 14.6568 34.5137 13.6452C32.3837 12.6335 30.0553 12.1085 27.6972 12.1082C27.0506 12.1087 26.4045 12.1496 25.763 12.2308C25.5664 12.2507 25.3698 12.1929 25.2153 12.0697C25.0607 11.9466 24.9605 11.7679 24.936 11.5718C24.9115 11.3757 24.9646 11.1778 25.0841 11.0204C25.2036 10.863 25.3799 10.7586 25.5753 10.7294C26.2792 10.6408 26.9878 10.5958 27.6972 10.5947C32.3134 10.5947 36.7406 12.4285 40.0047 15.6927C43.2689 18.9568 45.1026 23.3839 45.1026 28.0001C45.1026 32.6163 43.2689 37.0435 40.0047 40.3076C36.7406 43.5718 32.3134 45.4055 27.6972 45.4055Z" fill="#0E0E9C"/>
<path d="M27.6971 38.5945C25.6017 38.5945 23.5534 37.9731 21.8111 36.809C20.0688 35.6448 18.7109 33.9902 17.909 32.0542C17.1071 30.1183 16.8973 27.9881 17.3061 25.933C17.7149 23.8778 18.7239 21.99 20.2056 20.5084C21.6873 19.0267 23.5751 18.0176 25.6302 17.6089C27.6854 17.2001 29.8156 17.4099 31.7515 18.2117C33.6874 19.0136 35.3421 20.3716 36.5062 22.1138C37.6704 23.8561 38.2917 25.9045 38.2917 27.9999C38.2887 30.8088 37.1716 33.5018 35.1853 35.4881C33.1991 37.4743 30.5061 38.5915 27.6971 38.5945ZM27.6971 18.9188C25.9011 18.9188 24.1453 19.4514 22.652 20.4492C21.1586 21.4471 19.9946 22.8653 19.3073 24.5247C18.62 26.184 18.4402 28.0099 18.7905 29.7715C19.1409 31.5331 20.0058 33.1512 21.2758 34.4212C22.5459 35.6912 24.1639 36.5561 25.9255 36.9065C27.6871 37.2569 29.513 37.077 31.1723 36.3897C32.8317 35.7024 34.2499 34.5384 35.2478 33.0451C36.2456 31.5517 36.7782 29.7959 36.7782 27.9999C36.7756 25.5922 35.818 23.2839 34.1156 21.5815C32.4131 19.879 30.1048 18.9214 27.6971 18.9188Z" fill="#0E0E9C"/>
<path d="M4.84336 26.4865C4.09499 26.4865 3.36344 26.2646 2.7412 25.8488C2.11896 25.4331 1.63398 24.8421 1.3476 24.1507C1.06121 23.4593 0.986278 22.6985 1.13228 21.9646C1.27827 21.2306 1.63865 20.5564 2.16782 20.0272C2.69699 19.498 3.37119 19.1376 4.10518 18.9917C4.83916 18.8457 5.59995 18.9206 6.29135 19.207C6.98274 19.4934 7.57369 19.9783 7.98946 20.6006C8.40522 21.2228 8.62714 21.9544 8.62714 22.7027C8.62594 23.7059 8.2269 24.6676 7.51757 25.3769C6.80823 26.0863 5.84651 26.4853 4.84336 26.4865ZM4.84336 20.4325C4.39434 20.4325 3.9554 20.5656 3.58206 20.8151C3.20872 21.0645 2.91773 21.4191 2.7459 21.8339C2.57407 22.2488 2.52911 22.7053 2.61671 23.1456C2.70431 23.586 2.92053 23.9906 3.23803 24.3081C3.55554 24.6256 3.96006 24.8418 4.40045 24.9294C4.84084 25.017 5.29731 24.972 5.71215 24.8002C6.12699 24.6284 6.48156 24.3374 6.73102 23.964C6.98048 23.5907 7.11363 23.1517 7.11363 22.7027C7.11363 22.1006 6.87444 21.5232 6.44868 21.0974C6.02292 20.6716 5.44547 20.4325 4.84336 20.4325Z" fill="#0E0E9C"/>
<path d="M22.7164 15.8918C21.968 15.8918 21.2365 15.6699 20.6142 15.2541C19.992 14.8383 19.507 14.2474 19.2206 13.556C18.9343 12.8646 18.8593 12.1038 19.0053 11.3698C19.1513 10.6358 19.5117 9.96164 20.0409 9.43247C20.57 8.90329 21.2442 8.54292 21.9782 8.39692C22.7122 8.25093 23.473 8.32586 24.1644 8.61224C24.8558 8.89863 25.4467 9.38361 25.8625 10.0058C26.2783 10.6281 26.5002 11.3596 26.5002 12.108C26.499 13.1112 26.1 14.0729 25.3906 14.7822C24.6813 15.4916 23.7196 15.8906 22.7164 15.8918ZM22.7164 9.83773C22.2674 9.83773 21.8285 9.97088 21.4551 10.2203C21.0818 10.4698 20.7908 10.8244 20.6189 11.2392C20.4471 11.654 20.4022 12.1105 20.4898 12.5509C20.5774 12.9913 20.7936 13.3958 21.1111 13.7133C21.4286 14.0308 21.8331 14.2471 22.2735 14.3347C22.7139 14.4223 23.1704 14.3773 23.5852 14.2055C24 14.0336 24.3546 13.7426 24.6041 13.3693C24.8535 12.996 24.9867 12.557 24.9867 12.108C24.9867 11.5059 24.7475 10.9284 24.3217 10.5027C23.896 10.0769 23.3185 9.83773 22.7164 9.83773Z" fill="#0E0E9C"/>
<path d="M18.6163 45.4055C17.8679 45.4055 17.1364 45.1835 16.5141 44.7678C15.8919 44.352 15.4069 43.7611 15.1205 43.0697C14.8342 42.3783 14.7592 41.6175 14.9052 40.8835C15.0512 40.1495 15.4116 39.4753 15.9408 38.9461C16.4699 38.417 17.1441 38.0566 17.8781 37.9106C18.6121 37.7646 19.3729 37.8395 20.0643 38.1259C20.7557 38.4123 21.3466 38.8973 21.7624 39.5195C22.1782 40.1418 22.4001 40.8733 22.4001 41.6217C22.3989 42.6248 21.9999 43.5865 21.2905 44.2959C20.5812 45.0052 19.6195 45.4043 18.6163 45.4055ZM18.6163 39.3514C18.1673 39.3514 17.7284 39.4846 17.355 39.734C16.9817 39.9835 16.6907 40.338 16.5188 40.7529C16.347 41.1677 16.3021 41.6242 16.3897 42.0646C16.4773 42.505 16.6935 42.9095 17.011 43.227C17.3285 43.5445 17.733 43.7607 18.1734 43.8483C18.6138 43.9359 19.0703 43.891 19.4851 43.7191C19.8999 43.5473 20.2545 43.2563 20.504 42.883C20.7534 42.5096 20.8866 42.0707 20.8866 41.6217C20.8866 41.0196 20.6474 40.4421 20.2216 40.0164C19.7959 39.5906 19.2184 39.3514 18.6163 39.3514Z" fill="#0E0E9C"/>
<path d="M51.1568 31.027C50.4085 31.027 49.6769 30.8051 49.0547 30.3894C48.4324 29.9736 47.9475 29.3826 47.6611 28.6913C47.3747 27.9999 47.2998 27.2391 47.4458 26.5051C47.5918 25.7711 47.9521 25.0969 48.4813 24.5677C49.0105 24.0385 49.6847 23.6782 50.4187 23.5322C51.1526 23.3862 51.9134 23.4611 52.6048 23.7475C53.2962 24.0339 53.8872 24.5189 54.3029 25.1411C54.7187 25.7633 54.9406 26.4949 54.9406 27.2433C54.9394 28.2464 54.5404 29.2081 53.831 29.9175C53.1217 30.6268 52.16 31.0258 51.1568 31.027ZM51.1568 24.973C50.7078 24.973 50.2689 25.1061 49.8955 25.3556C49.5222 25.6051 49.2312 25.9596 49.0594 26.3745C48.8875 26.7893 48.8426 27.2458 48.9302 27.6862C49.0178 28.1266 49.234 28.5311 49.5515 28.8486C49.869 29.1661 50.2735 29.3823 50.7139 29.4699C51.1543 29.5575 51.6108 29.5125 52.0256 29.3407C52.4405 29.1689 52.795 28.8779 53.0445 28.5046C53.294 28.1312 53.4271 27.6923 53.4271 27.2433C53.4271 26.6411 53.1879 26.0637 52.7622 25.6379C52.3364 25.2122 51.7589 24.973 51.1568 24.973Z" fill="#0E0E9C"/>
</svg>
