<svg width="56" height="56" viewBox="0 0 56 56" fill="none" xmlns="http://www.w3.org/2000/svg">
<path d="M54.25 53.3749H51.625V1.74993C51.6249 1.60798 51.5902 1.4682 51.5241 1.34261C51.4579 1.21702 51.3622 1.1094 51.2452 1.029C51.1283 0.948607 50.9935 0.897854 50.8525 0.881113C50.7116 0.864371 50.5687 0.882143 50.4361 0.932898L27.6861 9.6829C27.521 9.74647 27.379 9.85856 27.2788 10.0044C27.1787 10.1502 27.125 10.323 27.125 10.4999V23.8995L4.93609 32.4329C4.77099 32.4965 4.629 32.6086 4.52884 32.7544C4.42869 32.9002 4.37505 33.073 4.375 33.2499V53.3749H1.75C1.51794 53.3749 1.29538 53.4671 1.13128 53.6312C0.967187 53.7953 0.875 54.0179 0.875 54.2499C0.875 54.482 0.967187 54.7046 1.13128 54.8686C1.29538 55.0327 1.51794 55.1249 1.75 55.1249H54.25C54.4821 55.1249 54.7046 55.0327 54.8687 54.8686C55.0328 54.7046 55.125 54.482 55.125 54.2499C55.125 54.0179 55.0328 53.7953 54.8687 53.6312C54.7046 53.4671 54.4821 53.3749 54.25 53.3749ZM27.125 53.3749H6.125V33.8504L27.125 25.7741V53.3749ZM38.5 53.3749H35V44.6249H38.5V53.3749ZM43.75 53.3749H40.25V44.6249H43.75V53.3749ZM49.875 53.3749H45.5V43.7499C45.5 43.5179 45.4078 43.2953 45.2437 43.1312C45.0796 42.9671 44.8571 42.8749 44.625 42.8749H34.125C33.8929 42.8749 33.6704 42.9671 33.5063 43.1312C33.3422 43.2953 33.25 43.5179 33.25 43.7499V53.3749H28.875V11.1004L49.875 3.02415V53.3749Z" fill="#0E0E9C"/>
<path d="M22.75 35.875H9.625C9.39294 35.875 9.17038 35.9672 9.00628 36.1313C8.84219 36.2954 8.75 36.5179 8.75 36.75V42C8.75 42.2321 8.84219 42.4546 9.00628 42.6187C9.17038 42.7828 9.39294 42.875 9.625 42.875H22.75C22.9821 42.875 23.2046 42.7828 23.3687 42.6187C23.5328 42.4546 23.625 42.2321 23.625 42V36.75C23.625 36.5179 23.5328 36.2954 23.3687 36.1313C23.2046 35.9672 22.9821 35.875 22.75 35.875ZM21.875 41.125H10.5V37.625H21.875V41.125Z" fill="#0E0E9C"/>
<path d="M22.75 43.75H17.5C17.2679 43.75 17.0454 43.8422 16.8813 44.0063C16.7172 44.1704 16.625 44.3929 16.625 44.625V49.875C16.625 50.1071 16.7172 50.3296 16.8813 50.4937C17.0454 50.6578 17.2679 50.75 17.5 50.75H22.75C22.9821 50.75 23.2046 50.6578 23.3687 50.4937C23.5328 50.3296 23.625 50.1071 23.625 49.875V44.625C23.625 44.3929 23.5328 44.1704 23.3687 44.0063C23.2046 43.8422 22.9821 43.75 22.75 43.75ZM21.875 49H18.375V45.5H21.875V49Z" fill="#0E0E9C"/>
<path d="M14.875 43.75H9.625C9.39294 43.75 9.17038 43.8422 9.00628 44.0063C8.84219 44.1704 8.75 44.3929 8.75 44.625V49.875C8.75 50.1071 8.84219 50.3296 9.00628 50.4937C9.17038 50.6578 9.39294 50.75 9.625 50.75H14.875C15.1071 50.75 15.3296 50.6578 15.4937 50.4937C15.6578 50.3296 15.75 50.1071 15.75 49.875V44.625C15.75 44.3929 15.6578 44.1704 15.4937 44.0063C15.3296 43.8422 15.1071 43.75 14.875 43.75ZM14 49H10.5V45.5H14V49Z" fill="#0E0E9C"/>
<path d="M46.375 25.375H41.125C40.8929 25.375 40.6704 25.4672 40.5063 25.6313C40.3422 25.7954 40.25 26.0179 40.25 26.25V31.5C40.25 31.7321 40.3422 31.9546 40.5063 32.1187C40.6704 32.2828 40.8929 32.375 41.125 32.375H46.375C46.6071 32.375 46.8296 32.2828 46.9937 32.1187C47.1578 31.9546 47.25 31.7321 47.25 31.5V26.25C47.25 26.0179 47.1578 25.7954 46.9937 25.6313C46.8296 25.4672 46.6071 25.375 46.375 25.375ZM45.5 30.625H42V27.125H45.5V30.625Z" fill="#0E0E9C"/>
<path d="M37.625 25.375H32.375C32.1429 25.375 31.9204 25.4672 31.7563 25.6313C31.5922 25.7954 31.5 26.0179 31.5 26.25V31.5C31.5 31.7321 31.5922 31.9546 31.7563 32.1187C31.9204 32.2828 32.1429 32.375 32.375 32.375H37.625C37.8571 32.375 38.0796 32.2828 38.2437 32.1187C38.4078 31.9546 38.5 31.7321 38.5 31.5V26.25C38.5 26.0179 38.4078 25.7954 38.2437 25.6313C38.0796 25.4672 37.8571 25.375 37.625 25.375ZM36.75 30.625H33.25V27.125H36.75V30.625Z" fill="#0E0E9C"/>
<path d="M46.375 33.25H41.125C40.8929 33.25 40.6704 33.3422 40.5063 33.5063C40.3422 33.6704 40.25 33.8929 40.25 34.125V39.375C40.25 39.6071 40.3422 39.8296 40.5063 39.9937C40.6704 40.1578 40.8929 40.25 41.125 40.25H46.375C46.6071 40.25 46.8296 40.1578 46.9937 39.9937C47.1578 39.8296 47.25 39.6071 47.25 39.375V34.125C47.25 33.8929 47.1578 33.6704 46.9937 33.5063C46.8296 33.3422 46.6071 33.25 46.375 33.25ZM45.5 38.5H42V35H45.5V38.5Z" fill="#0E0E9C"/>
<path d="M37.625 33.25H32.375C32.1429 33.25 31.9204 33.3422 31.7563 33.5063C31.5922 33.6704 31.5 33.8929 31.5 34.125V39.375C31.5 39.6071 31.5922 39.8296 31.7563 39.9937C31.9204 40.1578 32.1429 40.25 32.375 40.25H37.625C37.8571 40.25 38.0796 40.1578 38.2437 39.9937C38.4078 39.8296 38.5 39.6071 38.5 39.375V34.125C38.5 33.8929 38.4078 33.6704 38.2437 33.5063C38.0796 33.3422 37.8571 33.25 37.625 33.25ZM36.75 38.5H33.25V35H36.75V38.5Z" fill="#0E0E9C"/>
<path d="M46.375 16.625H41.125C40.8929 16.625 40.6704 16.7172 40.5063 16.8813C40.3422 17.0454 40.25 17.2679 40.25 17.5V22.75C40.25 22.9821 40.3422 23.2046 40.5063 23.3687C40.6704 23.5328 40.8929 23.625 41.125 23.625H46.375C46.6071 23.625 46.8296 23.5328 46.9937 23.3687C47.1578 23.2046 47.25 22.9821 47.25 22.75V17.5C47.25 17.2679 47.1578 17.0454 46.9937 16.8813C46.8296 16.7172 46.6071 16.625 46.375 16.625ZM45.5 21.875H42V18.375H45.5V21.875Z" fill="#0E0E9C"/>
<path d="M37.625 16.625H32.375C32.1429 16.625 31.9204 16.7172 31.7563 16.8813C31.5922 17.0454 31.5 17.2679 31.5 17.5V22.75C31.5 22.9821 31.5922 23.2046 31.7563 23.3687C31.9204 23.5328 32.1429 23.625 32.375 23.625H37.625C37.8571 23.625 38.0796 23.5328 38.2437 23.3687C38.4078 23.2046 38.5 22.9821 38.5 22.75V17.5C38.5 17.2679 38.4078 17.0454 38.2437 16.8813C38.0796 16.7172 37.8571 16.625 37.625 16.625ZM36.75 21.875H33.25V18.375H36.75V21.875Z" fill="#0E0E9C"/>
</svg>
