<svg width="56" height="56" viewBox="0 0 56 56" fill="none" xmlns="http://www.w3.org/2000/svg">
<path d="M49.875 0.875H13.125C12.8929 0.875 12.6704 0.967187 12.5063 1.13128C12.3422 1.29538 12.25 1.51794 12.25 1.75V23.625H6.125C5.89294 23.625 5.67038 23.7172 5.50628 23.8813C5.34219 24.0454 5.25 24.2679 5.25 24.5V50.75C5.25139 51.9099 5.71277 53.0219 6.53294 53.8421C7.35311 54.6622 8.4651 55.1236 9.625 55.125H46.375C47.5349 55.1236 48.6469 54.6622 49.4671 53.8421C50.2872 53.0219 50.7486 51.9099 50.75 50.75V1.75C50.75 1.51794 50.6578 1.29538 50.4937 1.13128C50.3296 0.967187 50.1071 0.875 49.875 0.875ZM12.25 50.75C12.25 51.4462 11.9734 52.1139 11.4812 52.6062C10.9889 53.0984 10.3212 53.375 9.625 53.375C8.92881 53.375 8.26113 53.0984 7.76884 52.6062C7.27656 52.1139 7 51.4462 7 50.75V25.375H12.25V50.75ZM49 50.75C49 51.4462 48.7234 52.1139 48.2312 52.6062C47.7389 53.0984 47.0712 53.375 46.375 53.375H13.125C13.6945 52.6185 14.0017 51.6969 14 50.75V2.625H49V50.75Z" fill="#0E0E9C"/>
<path d="M37.625 19.25C38.6633 19.25 39.6784 18.9421 40.5417 18.3652C41.4051 17.7883 42.078 16.9684 42.4754 16.0091C42.8727 15.0498 42.9767 13.9942 42.7741 12.9758C42.5715 11.9574 42.0715 11.0219 41.3373 10.2877C40.6031 9.55347 39.6676 9.05345 38.6492 8.85088C37.6308 8.64831 36.5752 8.75227 35.6159 9.14963C34.6566 9.54699 33.8367 10.2199 33.2598 11.0833C32.6829 11.9466 32.375 12.9616 32.375 14C32.3764 15.392 32.93 16.7265 33.9142 17.7108C34.8985 18.695 36.233 19.2486 37.625 19.25ZM37.625 10.5C38.3172 10.5 38.9939 10.7053 39.5695 11.0899C40.1451 11.4744 40.5937 12.0211 40.8586 12.6606C41.1235 13.3002 41.1928 14.0039 41.0577 14.6828C40.9227 15.3618 40.5894 15.9854 40.0999 16.4749C39.6104 16.9644 38.9867 17.2977 38.3078 17.4328C37.6289 17.5678 36.9251 17.4985 36.2856 17.2336C35.6461 16.9687 35.0994 16.5201 34.7149 15.9445C34.3303 15.3689 34.125 14.6922 34.125 14C34.125 13.0717 34.4937 12.1815 35.1501 11.5251C35.8065 10.8688 36.6967 10.5 37.625 10.5Z" fill="#0E0E9C"/>
<path d="M20.125 13.125C20.9903 13.125 21.8362 12.8684 22.5556 12.3877C23.2751 11.9069 23.8358 11.2237 24.167 10.4242C24.4981 9.62481 24.5847 8.74515 24.4159 7.89648C24.2471 7.04782 23.8304 6.26826 23.2186 5.65641C22.6067 5.04456 21.8272 4.62788 20.9785 4.45907C20.1299 4.29026 19.2502 4.3769 18.4508 4.70803C17.6513 5.03916 16.9681 5.59992 16.4873 6.31938C16.0066 7.03885 15.75 7.88471 15.75 8.75C15.7514 9.9099 16.2128 11.0219 17.0329 11.8421C17.8531 12.6622 18.9651 13.1236 20.125 13.125ZM20.125 6.125C20.6442 6.125 21.1517 6.27896 21.5834 6.56739C22.015 6.85583 22.3515 7.2658 22.5502 7.74546C22.7489 8.22511 22.8008 8.75291 22.6996 9.26211C22.5983 9.77131 22.3483 10.239 21.9812 10.6062C21.614 10.9733 21.1463 11.2233 20.6371 11.3246C20.1279 11.4258 19.6001 11.3739 19.1205 11.1752C18.6408 10.9765 18.2308 10.6401 17.9424 10.2084C17.654 9.7767 17.5 9.26918 17.5 8.75C17.5 8.05381 17.7766 7.38613 18.2688 6.89385C18.7611 6.40156 19.4288 6.125 20.125 6.125Z" fill="#0E0E9C"/>
<path d="M19.25 16.6252V18.3752H29.6117C29.6936 18.9787 29.9046 19.5574 30.2305 20.0719C30.5564 20.5863 30.9894 21.0245 31.5 21.3563V21.8752H17.5V23.6252H31.5V27.1252H17.5V28.8752H31.5V30.6252C31.5 30.7982 31.5514 30.9674 31.6475 31.1112C31.7437 31.2551 31.8803 31.3672 32.0402 31.4334C32.2 31.4996 32.3759 31.517 32.5457 31.4832C32.7154 31.4495 32.8713 31.3662 32.9936 31.2438L35 29.2375V32.3752H17.5V34.1252H35V36.7502C35 36.9232 35.0514 37.0924 35.1475 37.2362C35.2437 37.3801 35.3803 37.4922 35.5402 37.5584C35.7 37.6246 35.8759 37.642 36.0457 37.6082C36.2154 37.5745 36.3713 37.4912 36.4936 37.3688L39.375 34.4875L42.2564 37.3688C42.3787 37.4912 42.5346 37.5745 42.7043 37.6082C42.8741 37.642 43.05 37.6246 43.2098 37.5584C43.3697 37.4922 43.5063 37.3801 43.6025 37.2362C43.6986 37.0924 43.75 36.9232 43.75 36.7502V21.3563C44.3329 20.9761 44.8149 20.4602 45.1549 19.853C45.4948 19.2457 45.6826 18.5651 45.7021 17.8695C45.7359 17.5015 45.8942 17.1561 46.151 16.8903C46.859 16.0941 47.25 15.0657 47.25 14.0002C47.25 12.9348 46.859 11.9063 46.151 11.1101C45.8942 10.8444 45.7359 10.4989 45.7021 10.131C45.6669 9.02607 45.2123 7.97604 44.4307 7.19427C43.6491 6.41251 42.5991 5.95768 41.4943 5.92222C41.1253 5.88999 40.7786 5.7318 40.5125 5.47422C39.7056 4.78796 38.6808 4.41113 37.6215 4.41113C36.5622 4.41113 35.5374 4.78796 34.7305 5.47422C34.4653 5.73108 34.12 5.88921 33.7523 5.92222C32.6474 5.95768 31.5974 6.41251 30.8158 7.19427C30.0342 7.97604 29.5796 9.02607 29.5444 10.131C29.5106 10.4989 29.3523 10.8444 29.0955 11.1101C28.4236 11.8611 28.036 12.8238 28.0002 13.8309C27.9644 14.838 28.2826 15.8258 28.8995 16.6226L19.25 16.6252ZM33.25 22.0135C33.4172 22.0447 33.5861 22.0663 33.7557 22.0782C34.1235 22.1112 34.4688 22.2694 34.734 22.5262C35.5306 23.2341 36.5593 23.6252 37.625 23.6252C37.9192 23.6231 38.2124 23.5909 38.5 23.529V28.5165L36.4936 26.5101C36.3295 26.3461 36.107 26.2539 35.875 26.2539C35.643 26.2539 35.4205 26.3461 35.2564 26.5101L33.25 28.513V22.0135ZM42 34.638L39.9936 32.6316C39.8295 32.4676 39.607 32.3754 39.375 32.3754C39.143 32.3754 38.9205 32.4676 38.7564 32.6316L36.75 34.638V29.2375L38.7564 31.2438C38.8787 31.3662 39.0346 31.4495 39.2043 31.4832C39.3741 31.517 39.55 31.4996 39.7098 31.4334C39.8697 31.3672 40.0063 31.2551 40.1025 31.1112C40.1986 30.9674 40.25 30.7982 40.25 30.6252V22.7502H40.2115C40.313 22.675 40.4206 22.6102 40.516 22.5262C40.7812 22.2694 41.1265 22.1112 41.4943 22.0782C41.6639 22.0663 41.8328 22.0447 42 22.0135V34.638ZM30.408 12.2712C30.94 11.7033 31.2545 10.9658 31.2961 10.1887C31.3169 9.52752 31.589 8.89912 32.0568 8.43143C32.5247 7.96374 33.1532 7.69194 33.8144 7.67134C34.5911 7.62929 35.3281 7.31483 35.896 6.78322C36.3784 6.37227 36.9913 6.14657 37.625 6.14657C38.2587 6.14657 38.8716 6.37227 39.354 6.78322C39.9219 7.31483 40.6589 7.62929 41.4356 7.67134C42.0968 7.69194 42.7253 7.96374 43.1932 8.43143C43.661 8.89912 43.9331 9.52752 43.9539 10.1887C43.9957 10.966 44.3101 11.7037 44.842 12.2721C45.2657 12.748 45.4999 13.363 45.4999 14.0002C45.4999 14.6374 45.2657 15.2524 44.842 15.7283C44.3098 16.2965 43.9953 17.0343 43.9539 17.8117C43.9331 18.4729 43.661 19.1013 43.1932 19.569C42.7253 20.0367 42.0968 20.3085 41.4356 20.3291C40.6589 20.3711 39.9219 20.6856 39.354 21.2172C38.8716 21.6282 38.2587 21.8539 37.625 21.8539C36.9913 21.8539 36.3784 21.6282 35.896 21.2172C35.3281 20.6856 34.5911 20.3711 33.8144 20.3291C33.1532 20.3085 32.5247 20.0367 32.0568 19.569C31.589 19.1013 31.3169 18.4729 31.2961 17.8117C31.2547 17.0343 30.9402 16.2965 30.408 15.7283C29.9842 15.2523 29.7501 14.6371 29.7501 13.9998C29.7501 13.3624 29.9842 12.7473 30.408 12.2712Z" fill="#0E0E9C"/>
<path d="M42.875 39.375H20.125C19.4288 39.375 18.7611 39.6516 18.2688 40.1438C17.7766 40.6361 17.5 41.3038 17.5 42V47.25C17.5 47.9462 17.7766 48.6139 18.2688 49.1062C18.7611 49.5984 19.4288 49.875 20.125 49.875H42.875C43.5712 49.875 44.2389 49.5984 44.7312 49.1062C45.2234 48.6139 45.5 47.9462 45.5 47.25V42C45.5 41.3038 45.2234 40.6361 44.7312 40.1438C44.2389 39.6516 43.5712 39.375 42.875 39.375ZM43.75 47.25C43.75 47.4821 43.6578 47.7046 43.4937 47.8687C43.3296 48.0328 43.1071 48.125 42.875 48.125H20.125C19.8929 48.125 19.6704 48.0328 19.5063 47.8687C19.3422 47.7046 19.25 47.4821 19.25 47.25V42C19.25 41.7679 19.3422 41.5454 19.5063 41.3813C19.6704 41.2172 19.8929 41.125 20.125 41.125H42.875C43.1071 41.125 43.3296 41.2172 43.4937 41.3813C43.6578 41.5454 43.75 41.7679 43.75 42V47.25Z" fill="#0E0E9C"/>
</svg>
