<svg width="56" height="56" viewBox="0 0 56 56" fill="none" xmlns="http://www.w3.org/2000/svg">
<path d="M41.8796 25.5857C39.8602 22.7535 37.0722 20.6313 33.8168 19.4488C33.4956 19.3321 33.2797 19.0207 33.2797 18.674V16.2764C33.2797 15.88 32.9584 15.5586 32.5619 15.5586C32.1654 15.5586 31.8441 15.88 31.8441 16.2764V18.6741C31.8441 19.6224 32.44 20.476 33.3267 20.7981C39.4713 23.0302 43.5996 28.9244 43.5996 35.4648C43.5996 39.6353 41.9746 43.5552 39.0238 46.5024C36.0775 49.4448 32.1635 51.0645 28.0001 51.0645H27.9802C19.3894 51.0537 12.4004 44.0558 12.4004 35.4648C12.4004 31.622 13.81 27.9298 16.3695 25.0686C16.6338 24.7732 16.6086 24.3194 16.313 24.0551C16.0178 23.7909 15.564 23.8161 15.2995 24.1115C12.5042 27.2363 10.9648 31.2683 10.9648 35.4648C10.9648 40.0262 12.7299 44.3056 15.9349 47.5147C19.1399 50.7238 23.4171 52.4944 27.9784 52.5H28.0003C32.5464 52.4998 36.8212 50.7311 40.0382 47.5181C43.2605 44.2997 45.0352 40.0191 45.0352 35.4648C45.0352 31.8972 43.944 28.4811 41.8796 25.5857Z" fill="#0E0E9C"/>
<path d="M18.2702 23.0827C18.4192 23.0827 18.5695 23.0365 18.6981 22.9408C19.9157 22.0349 21.2534 21.3139 22.6741 20.7979C23.5605 20.476 24.1558 19.6225 24.1558 18.6741V9.41771H31.844V12.9746C31.844 13.371 32.1653 13.6924 32.5618 13.6924C32.9583 13.6924 33.2796 13.371 33.2796 12.9746V9.32956C34.5653 9.008 35.5205 7.84291 35.5205 6.45876C35.5205 4.82731 34.1932 3.5 32.5618 3.5H23.4381C21.8066 3.5 20.4793 4.82731 20.4793 6.45885C20.4793 7.84291 21.4345 9.008 22.7203 9.32966V18.6741C22.7203 19.0208 22.5048 19.3321 22.184 19.4485C20.6319 20.0123 19.1708 20.7998 17.8412 21.7891C17.5232 22.0257 17.457 22.4753 17.6937 22.7934C17.8347 22.9827 18.051 23.0827 18.2702 23.0827ZM21.9149 6.45885C21.9149 5.61896 22.5982 4.93555 23.4381 4.93555H32.5618C33.4017 4.93555 34.085 5.61887 34.085 6.45885C34.085 7.29884 33.4017 7.98216 32.5618 7.98216H23.4381C22.5982 7.98206 21.9149 7.29874 21.9149 6.45885Z" fill="#0E0E9C"/>
<path d="M39.9737 39.8448C40.3525 39.9599 40.7539 39.7461 40.8691 39.3666C41.252 38.1057 41.4462 36.7929 41.4462 35.4649C41.4462 32.1702 40.2378 28.9983 38.0437 26.5335C37.9075 26.3804 37.7124 26.293 37.5075 26.293C36.2063 26.293 35.5179 26.5147 34.9103 26.7103C34.3302 26.8971 33.8292 27.0586 32.7534 27.0586C31.6776 27.0586 31.1765 26.8971 30.5964 26.7103C29.9889 26.5147 29.3005 26.293 27.9992 26.293C26.6981 26.293 26.0098 26.5147 25.4023 26.7103C24.8223 26.8972 24.3213 27.0586 23.2458 27.0586C22.1701 27.0586 21.6691 26.8972 21.0891 26.7103C20.4817 26.5147 19.7934 26.293 18.4921 26.293C18.2872 26.293 18.0921 26.3805 17.956 26.5335C15.7621 28.9983 14.5537 32.1702 14.5537 35.4649C14.5537 42.8792 20.5857 48.9112 28 48.9112C32.6184 48.9112 36.8617 46.5769 39.3508 42.667C39.5636 42.3326 39.465 41.8889 39.1307 41.6761C38.7964 41.4632 38.3526 41.5617 38.1397 41.8961C35.9156 45.3899 32.125 47.4756 28 47.4756C21.3772 47.4756 15.9893 42.0876 15.9893 35.4649C15.9893 32.6308 16.9905 29.8985 18.8155 27.7338C19.675 27.763 20.1304 27.9097 20.649 28.0767C21.2565 28.2723 21.9448 28.494 23.2459 28.494C24.547 28.494 25.2354 28.2723 25.8428 28.0767C26.4228 27.8898 26.9238 27.7284 27.9994 27.7284C29.0752 27.7284 29.5763 27.8899 30.1564 28.0767C30.7639 28.2723 31.4523 28.494 32.7536 28.494C34.0549 28.494 34.7432 28.2723 35.3508 28.0767C35.8695 27.9096 36.325 27.763 37.1845 27.7338C39.0095 29.8985 40.0107 32.6308 40.0107 35.4649C40.0107 36.6515 39.8373 37.8239 39.4955 38.9494C39.3803 39.3287 39.5944 39.7296 39.9737 39.8448Z" fill="#0E0E9C"/>
<path d="M20.1299 32.9829V34.1313C20.1299 34.5278 20.4512 34.8491 20.8477 34.8491C21.2442 34.8491 21.5654 34.5278 21.5654 34.1313V32.9829C21.5654 32.5865 21.2442 32.2651 20.8477 32.2651C20.4512 32.2651 20.1299 32.5865 20.1299 32.9829Z" fill="#0E0E9C"/>
<path d="M25.0146 35.0843C25.0146 36.8793 26.3538 38.3395 27.9999 38.3395C29.646 38.3395 30.9852 36.8793 30.9852 35.0843C30.9852 32.8335 28.8932 32.8335 27.9999 32.8335C27.1066 32.8335 25.0146 32.8336 25.0146 35.0843ZM29.5496 35.0843C29.5496 36.0877 28.8544 36.9039 27.9999 36.9039C27.1455 36.9039 26.4502 36.0877 26.4502 35.0843C26.4502 34.519 26.5129 34.269 27.9999 34.269C29.4869 34.269 29.5496 34.519 29.5496 35.0843Z" fill="#0E0E9C"/>
<path d="M34.4341 32.9829V34.1313C34.4341 34.5278 34.7554 34.8491 35.1519 34.8491C35.5484 34.8491 35.8696 34.5278 35.8696 34.1313V32.9829C35.8696 32.5865 35.5484 32.2651 35.1519 32.2651C34.7554 32.2651 34.4341 32.5865 34.4341 32.9829Z" fill="#0E0E9C"/>
</svg>
