<svg width="56" height="56" viewBox="0 0 56 56" fill="none" xmlns="http://www.w3.org/2000/svg">
<path d="M29.6992 52.7998C29.3992 52.7998 29.1992 52.5998 29.0992 52.3998L21.3992 34.6998L3.59922 26.9998C3.29922 26.8998 3.19922 26.5998 3.19922 26.3998C3.19922 26.0998 3.39922 25.8998 3.59922 25.6998L51.6992 3.2998H51.7992C51.7992 3.2998 51.8992 3.2998 51.9992 3.2998H52.0992H52.1992C52.1992 3.2998 52.2992 3.2998 52.3992 3.3998C52.4992 3.4998 52.4992 3.4998 52.5992 3.4998L52.6992 3.5998V3.6998C52.6992 3.7998 52.7992 3.7998 52.7992 3.8998C52.7992 3.9998 52.7992 3.9998 52.7992 4.0998C52.7992 4.1998 52.7992 4.1998 52.7992 4.2998L52.6992 4.3998V4.4998L42.1992 26.7998L42.6992 26.8998C48.3992 27.7998 52.6992 32.8998 52.6992 38.6998C52.6992 45.2998 47.3992 50.5998 40.7992 50.5998C37.8992 50.5998 35.1992 49.5998 32.9992 47.6998L32.5992 47.3998L30.1992 52.4998C30.1992 52.5998 29.9992 52.7998 29.6992 52.7998ZM22.6992 34.2998L29.6992 50.2998L31.5992 46.0998L31.4992 45.9998C29.7992 43.8998 28.9992 41.3998 28.9992 38.6998C28.9992 32.2998 33.9992 26.9998 40.4992 26.7998H40.6992L48.7992 9.3998L48.1992 8.8998L22.6992 34.2998ZM40.8992 28.1998C35.0992 28.1998 30.3992 32.8998 30.3992 38.6998C30.3992 44.4998 35.0992 49.1998 40.8992 49.1998C46.6992 49.1998 51.3992 44.4998 51.3992 38.6998C51.3992 32.8998 46.6992 28.1998 40.8992 28.1998ZM5.69922 26.2998L21.6992 33.2998L47.0992 7.89981L46.5992 7.2998L5.69922 26.2998Z" fill="#0E0E9C"/>
<path d="M39.1992 42.7001C38.9992 42.7001 38.7992 42.6001 38.6992 42.5001L35.2992 39.1001C34.9992 38.8001 34.9992 38.4001 35.2992 38.1001C35.3992 38.0001 35.5992 37.9001 35.7992 37.9001C35.9992 37.9001 36.1992 38.0001 36.2992 38.1001L39.1992 41.0001L45.3992 34.8001C45.4992 34.7001 45.6992 34.6001 45.8992 34.6001C46.0992 34.6001 46.2992 34.7001 46.3992 34.8001C46.4992 34.9001 46.5992 35.1001 46.5992 35.3001C46.5992 35.5001 46.4992 35.7001 46.3992 35.8001L39.6992 42.5001C39.5992 42.6001 39.3992 42.7001 39.1992 42.7001Z" fill="#0E0E9C"/>
</svg>
