<svg width="56" height="56" viewBox="0 0 56 56" fill="none" xmlns="http://www.w3.org/2000/svg">
<path d="M41.7004 52.2998C41.1004 52.2998 40.7004 52.1998 40.2004 51.8998L28.7004 45.7998C28.5004 45.6998 28.3004 45.6998 28.1004 45.6998C27.9004 45.6998 27.7004 45.6998 27.5004 45.7998L16.0004 51.7998C15.5004 51.9998 15.0004 52.0998 14.5004 52.0998C13.8004 52.0998 13.2004 51.8998 12.6004 51.4998C11.6004 50.7998 11.1004 49.5998 11.3004 48.3998L13.5004 35.4998C13.6004 34.9998 13.4004 34.5998 13.1004 34.2998L3.7004 25.1998C2.8004 24.2998 2.5004 23.0998 2.9004 21.8998C3.3004 20.6998 4.2004 19.8998 5.4004 19.6998L18.3004 17.8998C18.7004 17.7998 19.1004 17.5998 19.3004 17.1998L25.1004 5.4998C25.6004 4.3998 26.7004 3.7998 27.9004 3.7998C29.1004 3.7998 30.2004 4.4998 30.7004 5.4998L36.5004 17.0998C36.7004 17.4998 37.0004 17.7998 37.5004 17.7998L50.4004 19.6998C51.6004 19.8998 52.6004 20.6998 52.9004 21.8998C53.3004 23.0998 53.0004 24.2998 52.1004 25.1998L43.0004 34.4998C42.7004 34.7998 42.5004 35.2998 42.6004 35.6998L44.8004 48.5998C45.0004 49.7998 44.5004 50.9998 43.5004 51.6998C43.0004 51.9998 42.3004 52.2998 41.7004 52.2998ZM28.0004 23.1998C31.0004 23.1998 33.4004 25.5998 33.4004 28.5998C33.4004 30.1998 32.7004 31.6998 31.5004 32.7998L31.3004 32.9998L31.6004 33.0998C33.8004 34.3998 35.2004 36.6998 35.2004 39.2998V46.9998L41.1004 50.1998C41.3004 50.2998 41.5004 50.2998 41.7004 50.2998C42.0004 50.2998 42.3004 50.1998 42.5004 49.9998C42.9004 49.6998 43.1004 49.1998 43.0004 48.6998L40.8004 35.7998C40.6004 34.7998 40.9004 33.6998 41.7004 32.9998L51.0004 23.9998C51.4004 23.5998 51.5004 23.0998 51.3004 22.5998C51.2004 22.0998 50.8004 21.6998 50.2004 21.6998L37.3004 19.7998C36.3004 19.5998 35.4004 18.9998 34.9004 18.0998L29.2004 6.3998C28.9004 5.8998 28.5004 5.6998 28.0004 5.6998C27.5004 5.6998 27.0004 5.9998 26.8004 6.3998L21.0004 18.0998C20.5004 19.0998 19.7004 19.6998 18.6004 19.7998L5.7004 21.6998C5.2004 21.7998 4.8004 22.1998 4.6004 22.5998C4.5004 23.1998 4.6004 23.6998 4.9004 23.9998L14.2004 33.0998C14.9004 33.7998 15.3004 34.8998 15.1004 35.8998L12.9004 48.7998C12.8004 49.2998 13.0004 49.7998 13.4004 50.0998C13.6004 50.2998 13.9004 50.3998 14.2004 50.3998C14.4004 50.3998 14.6004 50.2998 14.8004 50.1998L20.7004 47.0998V39.2998C20.7004 36.7998 22.1004 34.3998 24.3004 33.0998L24.6004 32.9998L24.4004 32.7998C23.2004 31.7998 22.5004 30.2998 22.5004 28.5998C22.6004 25.5998 25.0004 23.1998 28.0004 23.1998ZM28.0004 33.9998C25.1004 33.9998 22.8004 36.3998 22.8004 39.1998V46.0998L26.6004 44.0998C27.1004 43.8998 27.6004 43.6998 28.1004 43.6998C28.6004 43.6998 29.1004 43.7998 29.6004 44.0998L33.4004 46.0998V39.1998C33.2004 36.2998 30.9004 33.9998 28.0004 33.9998ZM28.0004 24.9998C26.0004 24.9998 24.4004 26.5998 24.4004 28.5998C24.4004 30.5998 26.0004 32.1998 28.0004 32.1998C30.0004 32.1998 31.6004 30.5998 31.6004 28.5998C31.6004 26.5998 30.0004 24.9998 28.0004 24.9998Z" fill="white"/>
</svg>
